<svg xmlns="http://www.w3.org/2000/svg" viewBox="0 0 401 440"><defs><style>.cls-1{fill:#222629;}.cls-2,.cls-3{fill:none;}.cls-2{stroke:#fff;stroke-linecap:round;stroke-linejoin:round;stroke-width:0.75px;}.cls-3{stroke:#95cd7b;stroke-miterlimit:10;}</style></defs><g id="Layer_29" data-name="Layer 29"><rect class="cls-1" x="-644.64" y="-232.2" width="1285.28" height="859.4"/></g><g id="plow"><path class="cls-2" d="M276.08,229.45c-2.24-.57-5,4-3.45,5.72"/><path class="cls-2" d="M247.61,229.13c-2.33.11-5,4-3.83,6.22"/><path class="cls-2" d="M256.23,247.94c-2.45.05-5,4-3,6.27"/><path class="cls-2" d="M236.37,266.47a5,5,0,0,0-3.89,5.93"/><path class="cls-2" d="M214.23,287.21c-2.34.2-4.5,4-3.49,6.53"/><path class="cls-2" d="M197.7,277.83a5.69,5.69,0,0,0-4.54,6.37"/><line class="cls-2" x1="132.82" y1="223.54" x2="119.85" y2="214.74"/><path class="cls-2" d="M110.89,199.42h.26a6.13,6.13,0,0,0,1-.1,6.52,6.52,0,0,0,1-.25,8.07,8.07,0,0,0,1.94-.93,10.12,10.12,0,0,0,.92-.65c.29-.23.57-.48.84-.74a12.6,12.6,0,0,0,1.44-1.66c.2-.29.4-.58.58-.89s.37-.65.54-1,.32-.7.46-1.05.25-.74.35-1.11a11,11,0,0,0,.24-1.14,10.54,10.54,0,0,0,.1-1.13,7.79,7.79,0,0,0-.07-1.28,6.19,6.19,0,0,0-.56-1.92c0-.09-.09-.17-.13-.26"/><path class="cls-2" d="M116.46,185.56c3.18,2.49,1.35,6.58.19,8.15"/><path class="cls-2" d="M158.12,212.59c3.37,2.65,1.54,6.73.38,8.3"/><path class="cls-2" d="M152,226.93h.55a8.57,8.57,0,0,0,1.12-.14,8.16,8.16,0,0,0,1.14-.33,8,8,0,0,0,.75-.32,9,9,0,0,0,1.09-.62,9.42,9.42,0,0,0,1-.76,10.88,10.88,0,0,0,.93-.86,12.89,12.89,0,0,0,1.53-1.92q.33-.53.63-1.08a12.57,12.57,0,0,0,.54-1.18,11.73,11.73,0,0,0,.41-1.27,11.09,11.09,0,0,0,.27-1.3,9.47,9.47,0,0,0,.09-1.3,7.94,7.94,0,0,0,0-.85,6.85,6.85,0,0,0-.21-1.2,5.86,5.86,0,0,0-.38-1.09c-.08-.18-.17-.35-.26-.52"/></g><g id="Layer_02" data-name="Layer 02"><line class="cls-3" x1="262.17" y1="119.15" x2="262.24" y2="119.19"/><line class="cls-3" x1="260.5" y1="121.61" x2="260.5" y2="121.61"/><line class="cls-3" x1="253.69" y1="126.19" x2="257.33" y2="124.22"/><line class="cls-3" x1="260.41" y1="121.63" x2="260.43" y2="121.63"/><polyline class="cls-3" points="243.76 137.9 246.83 140.54 246.93 140.63"/><polyline class="cls-3" points="278.45 110.28 278.44 110.27 276.56 109.38"/><polyline class="cls-3" points="304.76 142.68 304.21 142.3 303.51 141.83"/><polyline class="cls-3" points="260.51 119.7 260.44 119.75 260.41 119.77 260.34 119.82"/><polyline class="cls-3" points="256.28 122.01 256.74 121.79 257.18 121.58"/><polyline class="cls-3" points="257.89 123.73 257.49 124.11 257.45 124.15"/><line class="cls-3" x1="306.86" y1="131.66" x2="306.83" y2="131.69"/><polyline class="cls-3" points="308.75 131.16 308.57 131.09 308.51 131.07"/><path class="cls-3" d="M262.34,148.28a.46.46,0,0,1,.37.59"/><line class="cls-3" x1="258.01" y1="151.03" x2="262.34" y2="148.28"/><polyline class="cls-3" points="270.49 130.38 270.77 130.5 273.85 131.79 274.3 131.98 276.81 132.99"/><polyline class="cls-3" points="332.78 143.98 332.59 143.18 332.36 142.64 332.67 142.13 332.92 141.63 333.19 141.02 333.42 140.35 333.63 139.65"/><polyline class="cls-3" points="332.81 145.79 332.84 144.74 332.78 143.98 333.11 143.53 333.4 143.08 333.72 142.5 334.03 141.84 334.32 141.11"/><polyline class="cls-3" points="332.46 147.96 332.7 146.73 332.81 145.79 333.15 145.44 333.46 145.06 333.81 144.54 334.18 143.93 334.54 143.23"/><polyline class="cls-3" points="331.76 150.35 332.19 149.02 332.46 147.96 332.79 147.72 333.09 147.44 333.46 147.02 333.86 146.49 334.27 145.85"/><polyline class="cls-3" points="330.75 152.82 331.34 151.46 331.76 150.35 332.05 150.25 332.33 150.07 332.69 149.77 333.1 149.35 333.53 148.82"/><polyline class="cls-3" points="329.62 154.98 330.21 153.91 330.75 152.82 330.98 152.85 331.23 152.79 331.56 152.63 331.94 152.35 332.38 151.95"/><polyline class="cls-3" points="328.05 157.4 328.2 157.19 328.86 156.23 329.62 154.98"/><polyline class="cls-3" points="325.45 162.31 325.26 162.06 325.14 161.74 325.09 161.36 325.1 160.92 325.16 160.5 325.84 159.92 326.68 159.07"/><polyline class="cls-3" points="323.56 163.71 323.48 163.32 323.47 163.29 323.45 162.87 323.5 162.39 323.6 161.87 323.73 161.38 324.36 161.06 325.16 160.5"/><polyline class="cls-3" points="321.86 164.38 321.86 164.36 321.87 164 321.88 163.88 321.88 163.86 321.95 163.31 322.09 162.75 322.27 162.18 322.47 161.68 323.01 161.62 323.73 161.38"/><line class="cls-3" x1="322.47" y1="161.67" x2="321.88" y2="161.57"/><polyline class="cls-3" points="330.5 141.71 330.69 141.15 330.83 140.66 330.93 140.1 330.98 139.55 330.96 139.02 331.45 138.9 331.92 138.87 332.48 138.93"/><polyline class="cls-3" points="329.16 142.19 329.28 141.66 329.34 141.22 329.35 140.75 329.29 140.31 329.15 139.92 329.72 139.56 330.27 139.28 330.96 139.02"/><polyline class="cls-3" points="327.65 143.28 327.69 142.82 327.67 142.45 327.58 142.09 327.42 141.8 327.18 141.58 327.78 141 328.38 140.49 329.15 139.92"/><polyline class="cls-3" points="325.23 143.81 325.76 143.14 326.37 142.43 327.18 141.58"/><polyline class="cls-3" points="323.05 147.02 323.79 145.83 324.37 144.97 324.96 144.16 325.16 143.9"/><polyline class="cls-3" points="321.37 150.2 322.01 148.91 322.52 147.96 323.05 147.03 323.44 146.86 323.78 146.81 324.54 146.98"/><polyline class="cls-3" points="320.04 153.45 320.53 152.16 320.94 151.18 321.38 150.2 321.81 149.86 322.19 149.64 322.52 149.54 322.8 149.53 323.01 149.61"/><polyline class="cls-3" points="319.13 156.6 319.45 155.38 319.73 154.43 320.05 153.46 320.49 152.98 320.9 152.61 321.26 152.35 321.6 152.2 321.87 152.15"/><polyline class="cls-3" points="318.73 159.41 318.83 158.34 318.96 157.49 319.14 156.6 319.57 156.01 319.98 155.51 320.36 155.13 320.73 154.83 321.03 154.65"/><polyline class="cls-3" points="320.44 164.27 319.98 164 319.67 163.71 319.4 163.36 319.63 162.68 319.89 162.03 320.18 161.43 320.49 160.87 320.79 160.41"/><polyline class="cls-3" points="319.4 163.36 319.11 162.79 318.94 162.28 318.82 161.71 319.13 161.01 319.46 160.38 319.8 159.81 320.16 159.3 320.48 158.91"/><polyline class="cls-3" points="318.82 161.71 318.72 160.87 318.7 160.16 318.73 159.41 318.87 159.15 319.11 158.74 319.49 158.16 319.86 157.66 320.24 157.25 320.56 156.95"/><line class="cls-3" x1="319.97" y1="165.3" x2="319.58" y2="165.1"/><line class="cls-3" x1="312.07" y1="145.65" x2="313.67" y2="145.52"/><line class="cls-3" x1="260.5" y1="121.61" x2="260.53" y2="121.6"/><line class="cls-3" x1="316.94" y1="139.31" x2="319.9" y2="137.59"/><line class="cls-3" x1="302.79" y1="131.69" x2="303.39" y2="133.06"/><line class="cls-3" x1="297.59" y1="132.63" x2="298.42" y2="134.14"/><line class="cls-3" x1="298.05" y1="139.17" x2="299.08" y2="137.01"/><line class="cls-3" x1="296.06" y1="145.32" x2="297.12" y2="143.37"/><line class="cls-3" x1="295.42" y1="139.69" x2="293.62" y2="140.79"/><line class="cls-3" x1="286.28" y1="127.84" x2="286.03" y2="128.87"/><line class="cls-3" x1="283.93" y1="124.93" x2="283.93" y2="122.58"/><line class="cls-3" x1="281.69" y1="134.26" x2="281.35" y2="134.74"/><line class="cls-3" x1="259.16" y1="122.61" x2="259.37" y2="122.43"/><line class="cls-3" x1="260.47" y1="121.62" x2="260.5" y2="121.61"/><polyline class="cls-3" points="259.11 120.58 258.91 120.69 258.64 120.83"/><polyline class="cls-3" points="260.34 119.82 260.27 119.87 260.24 119.89"/><line class="cls-3" x1="281.36" y1="131.06" x2="282.39" y2="128.93"/><line class="cls-3" x1="280.07" y1="128.06" x2="278.58" y2="127.59"/><line class="cls-3" x1="278.57" y1="133.68" x2="276.97" y2="135.43"/><line class="cls-3" x1="266.14" y1="121.07" x2="266.91" y2="123.54"/><line class="cls-3" x1="269" y1="119.03" x2="269" y2="118.59"/><line class="cls-3" x1="266.17" y1="117.5" x2="265.63" y2="115.59"/><line class="cls-3" x1="262.75" y1="122.25" x2="260.98" y2="122.81"/><line class="cls-3" x1="263.34" y1="127.01" x2="262.05" y2="128.93"/><line class="cls-3" x1="270.8" y1="114.26" x2="270.65" y2="115.18"/><line class="cls-3" x1="256.28" y1="122.01" x2="256.24" y2="122.03"/><line class="cls-3" x1="292.1" y1="157.61" x2="291.99" y2="157.62"/><polyline class="cls-3" points="260.84 119.43 260.71 119.55 260.58 119.65"/><line class="cls-3" x1="261.23" y1="121.27" x2="261.19" y2="121.25"/><polyline class="cls-3" points="259.16 122.61 259.32 122.47 259.49 122.34"/><polyline class="cls-3" points="260.47 121.61 260.46 121.62 260.46 121.62"/><line class="cls-3" x1="258.62" y1="123.07" x2="258.75" y2="122.96"/><line class="cls-3" x1="259.16" y1="122.61" x2="258.95" y2="122.79"/><polyline class="cls-3" points="257.53 101.94 256.74 102.4 256.68 102.44"/><line class="cls-3" x1="253.95" y1="132.29" x2="253.82" y2="132.19"/><polyline class="cls-3" points="251.74 124.7 251.75 124.58 251.8 124.22"/><polyline class="cls-3" points="328.73 161.45 329.44 160.47 330.14 159.44 330.82 158.37 331.48 157.27 332.11 156.14 332.72 154.99 333.3 153.82 333.84 152.64 334.35 151.45 334.82 150.26 335.25 149.08 335.63 147.91"/><polyline class="cls-3" points="335.66 135.3 335.28 134.91 335.21 134.85 334.78 134.55"/><line class="cls-3" x1="311.66" y1="164.69" x2="311.36" y2="164.15"/><line class="cls-3" x1="334.78" y1="134.55" x2="334.55" y2="134.42"/><polyline class="cls-3" points="329.62 132.14 329.96 132.28 334.55 134.43"/><polyline class="cls-3" points="329 131.98 328.91 131.97 328.34 131.93 328.25 131.94 327.64 131.99"/><line class="cls-3" x1="258.74" y1="151.4" x2="262.71" y2="148.87"/><polyline class="cls-3" points="327.24 163.31 326.5 164.15 325.76 164.91 325.02 165.62 324.29 166.25 323.57 166.81"/><polyline class="cls-3" points="336.52 144.47 336.72 143.4 336.87 142.36 336.96 141.38 337 140.44"/><polyline class="cls-3" points="322.8 167.34 322.1 167.75 321.43 168.07 321.35 168.11 320.7 168.35 320.08 168.51 319.99 168.53 319.39 168.6"/><polyline class="cls-3" points="336.98 139.47 336.92 138.65 336.8 137.88"/><line class="cls-3" x1="318.12" y1="168.47" x2="317.94" y2="168.4"/><line class="cls-3" x1="336.6" y1="137.1" x2="336.37" y2="136.48"/><line class="cls-3" x1="313.07" y1="165.98" x2="317.55" y2="168.24"/><line class="cls-3" x1="312.8" y1="165.82" x2="312.54" y2="165.65"/><line class="cls-3" x1="311.07" y1="163.45" x2="310.87" y2="162.76"/><line class="cls-3" x1="329.53" y1="132.11" x2="329.62" y2="132.14"/><polyline class="cls-3" points="329.53 132.11 329.25 132.04 329 131.98"/><polyline class="cls-3" points="310.71 161.91 310.63 161.08 310.59 160.18"/><line class="cls-3" x1="326.91" y1="132.15" x2="326.24" y2="132.39"/><polyline class="cls-3" points="317.55 168.24 317.64 168.27 317.94 168.4"/><polyline class="cls-3" points="327.24 163.31 327.27 163.28 328 162.39 328.73 161.45"/><polyline class="cls-3" points="318.12 168.47 318.22 168.48 318.74 168.59"/><polyline class="cls-3" points="327.64 131.99 327 132.13 326.91 132.15"/><polyline class="cls-3" points="326.24 132.39 325.54 132.71 325.46 132.75"/><polyline class="cls-3" points="324 133.65 323.25 134.23 323.19 134.28"/><polyline class="cls-3" points="260.89 119.38 261.02 119.26 261.15 119.13 261.28 119 261.54 118.75 261.8 118.5 262.31 118 262.53 118.1 262.75 118.21 262.64 118.97 262.64 119.02"/><line class="cls-3" x1="260.05" y1="121.9" x2="260.27" y2="121.73"/><polyline class="cls-3" points="310.92 154.73 310.98 154.69 311.38 154.43"/><line class="cls-3" x1="277.3" y1="127.24" x2="276.28" y2="127.02"/><polyline class="cls-3" points="325.46 132.75 324.75 133.16 324 133.65"/><polyline class="cls-3" points="312.07 165.22 312.14 165.28 312.54 165.65"/><polyline class="cls-3" points="258.09 121.12 258.16 120.76 258.37 120 258.66 119.24 259.01 118.49 259.42 117.78 259.88 117.14 260.37 116.57 260.87 116.1 261.38 115.73 264.59 116.06"/><line class="cls-3" x1="310.3" y1="154.93" x2="311.17" y2="155.33"/><polyline class="cls-3" points="245.14 121.48 245.13 121.52 244.95 122.66 244.82 123.77"/><polyline class="cls-3" points="335.63 147.91 335.97 146.76 336.27 145.63 336.51 144.53 336.52 144.47"/><line class="cls-3" x1="254.14" y1="132.38" x2="253.95" y2="132.29"/><polyline class="cls-3" points="261.4 100.84 260.71 100.88 260.63 100.88"/><polyline class="cls-3" points="253.1 135.65 253.18 135.67 253.81 135.78"/><polyline class="cls-3" points="322.8 167.34 322.86 167.29 323.57 166.81"/><polyline class="cls-3" points="286.89 140.77 288.76 142.16 291.48 144.1 294.24 145.97 297.04 147.78 299.89 149.51 302.81 151.18 305.78 152.76 306.8 153.26"/><polyline class="cls-3" points="277.97 118.14 278.05 117.03 278.49 110.4 278.49 110.37 278.49 110.34 278.48 110.31 278.47 110.29 278.45 110.28"/><line class="cls-3" x1="270.37" y1="119.13" x2="270.38" y2="119.12"/><polyline class="cls-3" points="270.98 112.82 270.86 113.89 270.8 114.26"/><polyline class="cls-3" points="257.47 135.07 256.73 135.37 256.01 135.59 255.93 135.61 255.23 135.75 254.54 135.81 254.46 135.81 253.81 135.78"/><polyline class="cls-3" points="270.79 107.93 270.59 107.12 270.34 106.38"/><polyline class="cls-3" points="269.18 104.41 268.72 103.95 268.66 103.89"/><line class="cls-3" x1="268.15" y1="103.51" x2="267.64" y2="103.22"/><line class="cls-3" x1="245.93" y1="131.03" x2="245.6" y2="130.35"/><polyline class="cls-3" points="267.64 103.22 267.53 103.17 263.46 101.27"/><polyline class="cls-3" points="262.15 100.89 262.07 100.88 261.4 100.84"/><polyline class="cls-3" points="257.45 124.15 257.42 124.16 257.33 124.22"/><polyline class="cls-3" points="245.14 121.48 245.38 120.31 245.67 119.14 246.02 117.95 246.42 116.75 246.87 115.56 247.37 114.37 247.91 113.2 248.5 112.05 249.12 110.93 249.78 109.84 250.47 108.79 251.19 107.79 251.93 106.84 252.69 105.94"/><polyline class="cls-3" points="252.43 135.43 252.51 135.46 252.61 135.5"/><polyline class="cls-3" points="263.38 101.24 262.87 101.05 262.79 101.03"/><line class="cls-3" x1="263.46" y1="101.27" x2="263.39" y2="101.24"/><polyline class="cls-3" points="260.57 133.08 260.62 133.04 261.38 132.38 262.13 131.65"/><polyline class="cls-3" points="257.47 135.07 257.54 135.04 258.29 134.66"/><polyline class="cls-3" points="270.95 108.86 270.81 108 270.79 107.93"/><polyline class="cls-3" points="270.34 106.38 270.03 105.7 270 105.63"/><polyline class="cls-3" points="245.93 131.03 245.97 131.09 246.13 131.34"/><polyline class="cls-3" points="245.29 129.53 245.32 129.6 245.6 130.35"/><polyline class="cls-3" points="262.79 101.03 262.74 101.02 262.15 100.89"/><polyline class="cls-3" points="259.9 101.01 259.15 101.23 259.08 101.25"/><polyline class="cls-3" points="253.5 105.08 252.72 105.91 252.69 105.94"/><polyline class="cls-3" points="270.98 112.82 271.06 111.79 271.06 111.73"/><polyline class="cls-3" points="243.53 134.74 243.55 137.32 243.55 137.41"/><polyline class="cls-3" points="308.25 131.03 308.19 131.03 307.97 131.06 307.91 131.07 307.69 131.14"/><line class="cls-3" x1="307.4" y1="131.28" x2="307.15" y2="131.43"/><polyline class="cls-3" points="308.51 131.07 308.31 131.04 308.25 131.03"/><polyline class="cls-3" points="307.69 131.14 307.45 131.25 307.4 131.28"/><polyline class="cls-3" points="307.15 131.43 306.9 131.63 306.86 131.66"/><line class="cls-3" x1="247.89" y1="133.13" x2="247.9" y2="133.14"/><polyline class="cls-3" points="269.64 105.02 269.23 104.48 269.18 104.41"/><polyline class="cls-3" points="270.8 114.26 273.73 114.05 274.26 113.65"/><line class="cls-3" x1="262.51" y1="131.25" x2="262.13" y2="131.65"/><polyline class="cls-3" points="252.93 131.34 252.79 131.16 252.74 131.07"/><line class="cls-3" x1="320.55" y1="136.84" x2="308.75" y2="131.16"/><polyline class="cls-3" points="282.18 119 281.92 119.13 281.88 119.15"/><line class="cls-3" x1="281.62" y1="119.32" x2="281.46" y2="119.46"/><polyline class="cls-3" points="304.46 129.85 304.4 129.6 304.38 129.54"/><polyline class="cls-3" points="337 140.44 336.99 139.55 336.98 139.47"/><polyline class="cls-3" points="336.8 137.88 336.62 137.19 336.6 137.1"/><polyline class="cls-3" points="310.71 161.91 310.73 161.99 310.88 162.76"/><polyline class="cls-3" points="310.62 159.14 310.62 159.21 310.59 160.18"/><polyline class="cls-3" points="326.12 156.3 326.35 156.09 326.58 155.86 326.82 155.61 327.05 155.34 327.29 155.06 327.51 154.75"/><polyline class="cls-3" points="253.47 131.92 253.32 131.8 253.24 131.7"/><polyline class="cls-3" points="327.51 154.75 327.54 154.72 327.76 154.4 327.98 154.08 328.19 153.74 328.39 153.39 328.58 153.03 328.77 152.67 328.94 152.31 329.11 151.94 329.26 151.57 329.4 151.2 329.53 150.83 329.64 150.47 329.66 150.42"/><polyline class="cls-3" points="329.66 150.42 329.76 150.06 329.85 149.71 329.92 149.36 329.97 149.03 330.01 148.71"/><line class="cls-3" x1="266.32" y1="106.53" x2="266.45" y2="106.57"/><polyline class="cls-3" points="266.79 150.78 266.72 150.84 266.5 151.01 266.29 151.12 266.09 151.18 265.9 151.18 265.75 151.12 262.11 149.26"/><polyline class="cls-3" points="325.82 156.54 325.89 156.49 326.12 156.3"/><polyline class="cls-3" points="265.59 106.34 265.69 106.35 265.9 106.41"/><polygon class="cls-3" points="336.33 136.4 336.37 136.48 336.09 135.93 336.05 135.85 336.33 136.4"/><polyline class="cls-3" points="310.62 159.14 310.7 158.13 310.84 157.06 311.03 155.95 311.28 154.8 311.58 153.62"/><polyline class="cls-3" points="323.19 134.28 322.42 134.93 321.65 135.67 320.87 136.48 320.1 137.35 319.32 138.29 318.56 139.29"/><polyline class="cls-3" points="264.8 106.3 264.87 106.29 265.1 106.31"/><polyline class="cls-3" points="259.83 108.76 260.09 108.53 260.24 108.41"/><polyline class="cls-3" points="258.88 109.66 259.09 109.44 259.28 109.26"/><polyline class="cls-3" points="248.36 138.49 248.35 138.48 245.72 136.25 245.86 136.37 248.34 138.49"/><line class="cls-3" x1="246.07" y1="136.55" x2="246.05" y2="135.34"/><line class="cls-3" x1="246.05" y1="135.34" x2="253.75" y2="126.11"/><polyline class="cls-3" points="257.94 110.69 258.11 110.48 258.33 110.24"/><polyline class="cls-3" points="261.46 121.42 261.23 121.47 261.09 121.49 260.95 121.52 260.82 121.55 260.68 121.58 260.61 121.59 260.54 121.6 260.5 121.61"/><polyline class="cls-3" points="318.56 139.29 317.81 140.34 317.08 141.45 316.37 142.59 315.69 143.76 315.68 143.77"/><polyline class="cls-3" points="269.44 115.26 269.54 114.61 269.63 113.41 269.63 112.28 269.55 111.22 269.37 110.25 269.11 109.37 268.77 108.59 268.35 107.93 267.84 107.38 267.27 106.96"/><polyline class="cls-3" points="330.01 148.71 330.03 148.41 330.04 148.12 330.04 148.03"/><polyline class="cls-3" points="247.9 133.14 251.88 135.14 252.43 135.43"/><polyline class="cls-3" points="256.68 102.44 255.89 102.98 255.09 103.61 254.29 104.31 253.5 105.08"/><polyline class="cls-3" points="259.08 101.25 258.31 101.55 257.53 101.94"/><polyline class="cls-3" points="269.49 115.28 269.91 114.71 272.07 116.09"/><polyline class="cls-3" points="296.06 145.32 295.56 145.34 295.05 145.21 294.64 145.01 294.21 144.7 293.88 144.24 293.64 143.62 293.51 142.87 293.51 142.5"/><polyline class="cls-3" points="302.79 131.69 302.48 131.24 302.05 130.93 301.64 130.73 301.13 130.59 300.55 130.62 299.92 130.82 299.23 131.19 298.52 131.72 298.45 131.79"/><polyline class="cls-3" points="261.19 121.25 261.17 121.2 261.17 121.19 261.16 121.13 261.16 121.11 261.17 121.05 261.17 121.01 261.17 121 261.18 120.94 261.19 120.86 261.2 120.82 261.21 120.69 261.23 120.55 261.24 120.53 261.24 120.51 261.24 120.5 261.26 120.38 261.27 120.31 261.28 120.21 261.3 120.1 261.31 120.03 261.34 119.9 261.35 119.87 261.36 119.84 261.4 119.7 261.41 119.68 261.48 119.53 261.48 119.53 261.5 119.49 261.58 119.39 261.59 119.38 261.69 119.29 261.7 119.28 261.7 119.27 261.81 119.2 261.82 119.2 261.93 119.16 261.94 119.15 261.94 119.15 262.05 119.14 262.06 119.14 262.14 119.15 262.15 119.15 262.17 119.15"/><polyline class="cls-3" points="260.24 119.89 260.17 119.94 260.1 119.98 260 120.05 259.8 120.17 259.6 120.29"/><line class="cls-3" x1="258.26" y1="123.4" x2="258.62" y2="123.07"/><line class="cls-3" x1="258.62" y1="123.07" x2="258.26" y2="123.4"/><polyline class="cls-3" points="245.29 129.53 245.07 128.72 244.91 127.85 244.9 127.78 244.79 126.85 244.75 125.87 244.75 124.84 244.82 123.77"/><polyline class="cls-3" points="294.69 132.85 294.96 133.07 296.35 134.22"/><polyline class="cls-3" points="300.54 141.37 300.96 140.69 301 140.61"/><polyline class="cls-3" points="285.48 130.43 285.56 130.25 285.69 129.86"/><line class="cls-3" x1="268.66" y1="103.89" x2="268.15" y2="103.51"/><line class="cls-3" x1="304.49" y1="130.13" x2="304.46" y2="129.85"/><polyline class="cls-3" points="304.38 129.54 304.3 129.32 304.27 129.27 304.15 129.09 304.12 129.04"/><polyline class="cls-3" points="303.87 128.83 303.7 128.74 283.3 118.93"/><line class="cls-3" x1="303.87" y1="128.83" x2="303.93" y2="128.86"/><polyline class="cls-3" points="283.3 118.93 283.25 118.91 283.05 118.86 282.98 118.85 282.77 118.84 282.71 118.85 282.48 118.89 282.42 118.91 282.18 119"/><line class="cls-3" x1="281.88" y1="119.15" x2="281.62" y2="119.32"/><polyline class="cls-3" points="304.12 129.04 303.97 128.91 303.93 128.86"/><line class="cls-3" x1="270" y1="105.63" x2="269.64" y2="105.02"/><line class="cls-3" x1="253.1" y1="135.65" x2="252.61" y2="135.49"/><polyline class="cls-3" points="276.88 113.17 276.95 112.06 277.02 112.02 277.77 111.45"/><polyline class="cls-3" points="276.74 115.4 276.81 114.29 276.87 114.24 277.62 113.68"/><polyline class="cls-3" points="276.59 117.6 276.67 116.5 276.73 116.45 277.48 115.89"/><polyline class="cls-3" points="259.66 122.2 259.88 122.03 260.05 121.9"/><polyline class="cls-3" points="243.55 137.41 243.56 137.5 243.59 137.59 243.62 137.68 243.66 137.76 243.71 137.83 243.76 137.9"/><line class="cls-3" x1="246.05" y1="135.02" x2="246.05" y2="135.04"/><polyline class="cls-3" points="271.06 111.73 271.08 110.73 271.04 109.77 270.95 108.86"/><polyline class="cls-3" points="243.71 134.21 243.66 134.29 243.62 134.37 243.58 134.46 243.56 134.55 243.54 134.65 243.53 134.74"/><polyline class="cls-3" points="260.57 133.08 259.81 133.68 259.04 134.21 258.29 134.66"/><polyline class="cls-3" points="282.75 134.93 283.28 134.31 283.94 133.39 284.44 132.56"/><line class="cls-3" x1="268.24" y1="125.93" x2="267.84" y2="125.61"/><line class="cls-3" x1="267.37" y1="125.28" x2="267.38" y2="125.29"/><line class="cls-3" x1="259.57" y1="120.31" x2="259.6" y2="120.29"/><polyline class="cls-3" points="329.12 157.96 328.77 158.03 328.49 158 327.83 157.68"/><polyline class="cls-3" points="330.88 155.06 330.47 155.3 330.13 155.43 329.85 155.44 329.66 155.38 329.45 155.28"/><polyline class="cls-3" points="269.38 122.64 269.56 122.2 269.9 121.12 270.15 120.06 270.19 119.75"/><polyline class="cls-3" points="252.17 124.22 252.11 124.27 252.05 124.33"/><polyline class="cls-3" points="302.06 138.45 302.12 138.34 302.52 137.23 302.84 136.14 302.92 135.75"/><line class="cls-3" x1="306.47" y1="143.26" x2="306.5" y2="143.28"/><line class="cls-3" x1="260.63" y1="100.88" x2="259.9" y2="101.01"/><polyline class="cls-3" points="326.08 144.91 326.02 144.55 325.92 144.29 325.75 144.07"/><line class="cls-3" x1="325.16" y1="143.9" x2="325.22" y2="143.82"/><polyline class="cls-3" points="259.57 120.31 259.37 120.43 259.11 120.58"/><line class="cls-3" x1="321.88" y1="161.57" x2="321.46" y2="161.36"/><line class="cls-3" x1="330.96" y1="139.03" x2="330.97" y2="139.02"/><line class="cls-3" x1="306.47" y1="143.27" x2="306.46" y2="143.26"/><line class="cls-3" x1="311.11" y1="146.48" x2="310.81" y2="146.27"/><polyline class="cls-3" points="325.75 144.07 325.49 143.93 325.23 143.81"/><polyline class="cls-3" points="332.3 142.54 331.98 142.14 331.58 141.87 331.85 141.31 332.05 140.8 332.24 140.2 332.38 139.57 332.48 138.93 332.87 139.06"/><polyline class="cls-3" points="320.44 164.27 320.56 163.65 320.74 163.03 320.95 162.43 321.21 161.84 321.46 161.36"/><line class="cls-3" x1="304.77" y1="142.68" x2="304.87" y2="142.75"/><polyline class="cls-3" points="277.12 131.33 274.21 129.41 271.62 127.68 270.68 127.04 268.78 125.75"/><line class="cls-3" x1="259.59" y1="147.1" x2="246.93" y2="140.63"/><line class="cls-3" x1="311.6" y1="146.81" x2="311.11" y2="146.48"/><polyline class="cls-3" points="290.14 132.69 289.46 132.22 288.68 131.69 286.39 130.15 286.2 130.02"/><polyline class="cls-3" points="304.49 130.36 304.49 130.18 304.49 130.13"/><polyline class="cls-3" points="314.61 141.43 314.4 141.29 310.21 138.76 308.87 137.98"/><line class="cls-3" x1="310.77" y1="150.23" x2="310.73" y2="150.21"/><polyline class="cls-3" points="333.29 137.98 333.48 138.07 333.96 138.41 334.37 138.89 334.69 139.5 334.74 139.62 334.94 140.23 335.1 141.07 335.17 142.02 335.16 143.06 335.06 144.19 335.06 144.21 335.04 144.33 334.92 145.15 334.88 145.39 334.61 146.65 334.27 147.96 333.85 149.3 333.36 150.67 332.8 152.04 332.19 153.41 331.51 154.76 330.79 156.08 330.03 157.35 329.24 158.57 328.42 159.72 327.58 160.79 326.86 161.64 326.73 161.78 325.88 162.66 325.03 163.44 324.2 164.09 323.39 164.63 322.62 165.04 321.88 165.31 321.52 165.4 321.19 165.45 320.55 165.44 319.97 165.3"/><polyline class="cls-3" points="268.72 115.04 268.44 114.9 267.95 114.8"/><line class="cls-3" x1="278.58" y1="127.59" x2="278.59" y2="127.57"/><polygon class="cls-3" points="319.3 168.6 318.74 168.59 318.83 168.59 319.39 168.6 319.3 168.6"/><polygon class="cls-3" points="313.07 165.98 312.99 165.93 312.8 165.82 313.07 165.98"/><polyline class="cls-3" points="319.58 165.1 319.07 164.67 318.66 164.07 318.35 163.31 318.15 162.4 318.05 161.35 318.06 160.17 318.18 158.88 318.41 157.5 318.75 156.03 319.19 154.51 319.73 152.95 320.36 151.37 321.07 149.79 321.85 148.23 322.7 146.72 323.6 145.28 324.53 143.91 325.5 142.65 326.47 141.51 327.45 140.5 328.42 139.64 329.36 138.94 330.26 138.4 331.12 138.03 331.91 137.84 332.64 137.82 333.28 137.98"/><polygon class="cls-3" points="336 135.77 336.05 135.85 335.72 135.38 335.66 135.3 336 135.77"/><polygon class="cls-3" points="312.07 165.22 312.02 165.14 311.66 164.69 311.72 164.76 312.07 165.22"/><polygon class="cls-3" points="311.32 164.07 311.07 163.45 311.11 163.53 311.36 164.15 311.32 164.07"/><polyline class="cls-3" points="313.3 148.67 313.3 148.69 312.8 149.94 312.34 151.18 311.94 152.41 311.58 153.62"/><polyline class="cls-3" points="313.3 148.67 313.84 147.43 314.42 146.19 315.03 144.97 315.68 143.77"/><polyline class="cls-3" points="266.19 106.47 265.48 106.32 264.72 106.3 263.92 106.42 263.07 106.69 262.2 107.08 261.31 107.61 260.41 108.27 259.5 109.04 258.61 109.93 257.73 110.92 256.88 112.01 256.07 113.17 255.31 114.41 254.6 115.69 253.95 117.02 253.37 118.38 252.87 119.75 252.44 121.11 252.11 122.46 251.86 123.77 251.74 124.69"/><polyline class="cls-3" points="251.79 128.47 251.99 129.38 252.29 130.24 252.67 130.97 253.13 131.59 253.66 132.09 254.26 132.45 254.69 132.67 255.35 132.9 256.07 133 256.83 132.97 257.63 132.8 258.47 132.5 259.32 132.07 260.19 131.53 261.07 130.86 261.35 130.61"/><polyline class="cls-3" points="266.19 106.47 266.83 106.76 267.27 106.96"/><polyline class="cls-3" points="325.82 156.54 325.6 156.7 325.37 156.84 325.16 156.96 324.95 157.04 324.75 157.1 324.56 157.13 324.38 157.14 324.21 157.12 324.06 157.07 323.91 156.99 323.78 156.89 323.67 156.76 323.57 156.6 323.49 156.42 323.42 156.22 323.37 155.99 323.34 155.74 323.32 155.47 323.33 155.18 323.35 154.87 323.38 154.54 323.44 154.2 323.5 153.85 323.59 153.49 323.69 153.11 323.81 152.73 323.94 152.35 324.09 151.96 324.25 151.57 324.42 151.18 324.61 150.79 324.8 150.41 325.01 150.04 325.22 149.67 325.44 149.31 325.67 148.97 325.91 148.64 326.14 148.33 326.38 148.03 326.62 147.76 326.87 147.5 327.11 147.27 327.35 147.06 327.58 146.87 327.81 146.71 328.03 146.57 328.25 146.46 328.46 146.38 328.66 146.33 328.85 146.3 329.03 146.3 329.19 146.33 329.35 146.39 329.49 146.47 329.61 146.58 329.72 146.72 329.81 146.88 329.89 147.06 329.96 147.27 330 147.51 330.03 147.76 330.04 148.03"/><line class="cls-3" x1="277.61" y1="126.9" x2="277.48" y2="126.86"/><line class="cls-3" x1="277.31" y1="126.82" x2="277.52" y2="126.88"/><polyline class="cls-3" points="277.39 126.85 277.39 126.85 277.18 126.79"/><line class="cls-3" x1="277.68" y1="126.9" x2="277.8" y2="126.94"/><polyline class="cls-3" points="277.04 126.76 277.39 126.85 277.39 126.85"/><line class="cls-3" x1="305.38" y1="142.92" x2="305.38" y2="142.91"/><line class="cls-3" x1="280.15" y1="127.87" x2="280.23" y2="127.89"/><polyline class="cls-3" points="277.79 127.37 278.29 127.5 278.12 127.45"/><line class="cls-3" x1="277.79" y1="127.37" x2="277.31" y2="127.25"/><line class="cls-3" x1="311.38" y1="147.48" x2="309.54" y2="146.02"/><polyline class="cls-3" points="265.61 128.12 265.87 127.91 266.58 127.22 267.27 126.41 267.83 125.62"/><line class="cls-3" x1="259" y1="123.26" x2="258.93" y2="123.23"/><line class="cls-3" x1="314.61" y1="145.81" x2="313.67" y2="145.52"/><polyline class="cls-3" points="327.13 160.18 326.92 160 326.78 159.75 326.7 159.42 326.68 159.07 327.37 158.27 328.05 157.4"/><polyline class="cls-3" points="266.11 150.44 266.03 150.37 265.97 150.26 265.93 150.13 265.92 149.97 265.93 149.79 265.97 149.59 266.03 149.39 266.11 149.18 266.2 148.97 266.32 148.78 266.44 148.6 266.58 148.44 266.72 148.31 266.85 148.2 266.99 148.13 267.11 148.1 267.23 148.1 267.33 148.13"/><polyline class="cls-3" points="261.38 148.89 259.89 148.12 259.76 148.01 259.66 147.84 259.6 147.63 259.57 147.37 259.59 147.09 259.64 146.78 259.74 146.45 259.86 146.12 260.02 145.79 260.2 145.48 260.4 145.19 260.61 144.94 260.83 144.73 261.06 144.57 261.27 144.46 261.47 144.4 261.66 144.41 261.82 144.47 267.69 147.45 267.82 147.56 267.91 147.73 267.97 147.94 267.99 148.2 267.97 148.47"/><polyline class="cls-3" points="276.56 109.38 276.53 109.38 276.51 109.38 276.49 109.39 276.46 109.41 275.18 110.36 274.6 110.79 274.57 110.81 274.55 110.84 274.52 110.87 274.5 110.9 274.48 110.94 274.46 110.98 274.44 111.02 274.43 111.06 274.42 111.1 274.42 111.13 274.07 116.77"/><line class="cls-3" x1="268.56" y1="125.6" x2="268.43" y2="125.49"/><line class="cls-3" x1="268.42" y1="125.48" x2="268.54" y2="125.59"/><polyline class="cls-3" points="286.48 126.3 288.95 128.22 291.29 130.09"/><polyline class="cls-3" points="267.73 125.54 269.67 127.09 272.34 129.26 275.01 131.39 276.83 132.81"/><line class="cls-3" x1="298.34" y1="144.03" x2="298.66" y2="143.72"/><line class="cls-3" x1="268.33" y1="126" x2="267.9" y2="125.66"/><polyline class="cls-3" points="267.83 125.63 269.13 126.59 267.84 125.61"/><line class="cls-3" x1="267.47" y1="125.33" x2="267.42" y2="125.29"/><polyline class="cls-3" points="268.38 125.47 268.78 125.75 268.38 125.48"/><line class="cls-3" x1="267.38" y1="125.28" x2="268.85" y2="126.35"/><polyline class="cls-3" points="261.25 128.32 261.19 128.51 260.96 129.21 260.89 129.77 260.81 130.32 263.48 131.79 266.21 133.17 269.01 134.47 271.89 135.7 274.85 136.86 277.88 137.96 280.99 139 284.18 139.99 287.45 140.93 290.81 141.83 294.25 142.69 297.77 143.52 301.37 144.33 305.06 145.11 308.83 145.88 312.69 146.65 313.23 146.56 313.76 146.48 314.29 146.4 314.33 146.39"/><polyline class="cls-3" points="281.69 134.26 283.13 135.17 284.06 135.74"/><polyline class="cls-3" points="286.28 127.84 286.44 126.87 286.49 126.12"/><polyline class="cls-3" points="262.05 128.93 261.58 128.67 261.17 128.24 260.86 127.66 260.64 126.94 260.54 126.09 260.55 125.15 260.68 124.13 260.71 123.99"/><polyline class="cls-3" points="297.12 143.37 298.06 143.88 300.59 145.22 301.16 145.52 304.47 147.21 307.49 148.69 308.43 149.14 310.73 150.21"/><polyline class="cls-3" points="279.74 125.76 277.09 124.05 276.8 123.86 273.96 122.07 272.92 121.42 270.81 120.12 269 119.03"/><polyline class="cls-3" points="314.5 136.38 312.38 135.02 308.86 132.87 305.29 130.8 301.69 128.81 298.05 126.9 294.38 125.08 290.68 123.35 286.96 121.7 283.22 120.15 279.46 118.68 275.69 117.31 271.92 116.04 268.15 114.86 264.38 113.78 264.45 114.58 264.52 115.37 264.6 116.16 264.62 116.46"/><polyline class="cls-3" points="263.34 127.01 265 127.83 266.96 128.77 267.94 129.23"/><polyline class="cls-3" points="310.8 151.73 310.74 151.14 310.77 150.23 310.92 149.24 311.16 148.16 311.51 147.04 311.74 146.46"/><polygon class="cls-3" points="267.94 129.23 270.66 130.47 270.49 130.38 267.94 129.23"/><line class="cls-3" x1="306.47" y1="143.27" x2="298.05" y2="139.17"/><line class="cls-3" x1="294.59" y1="137.49" x2="281.36" y2="131.06"/><line class="cls-3" x1="277.78" y1="129.32" x2="270.85" y2="125.95"/><polyline class="cls-3" points="276.97 135.43 276.81 134.71 276.76 133.85 276.82 132.88 276.99 131.84 277.27 130.75 277.65 129.63 278.12 128.52 278.57 127.6"/><polyline class="cls-3" points="278.57 133.68 280.15 134.29 282.55 135.19 283.39 135.5 286.62 136.67 286.68 136.69 290.02 137.86 290.76 138.12 293.43 139.02 293.99 139.21"/><line class="cls-3" x1="297.36" y1="131.52" x2="297.05" y2="131.35"/><line class="cls-3" x1="313.03" y1="143.76" x2="299.08" y2="137.01"/><line class="cls-3" x1="295.64" y1="135.35" x2="282.36" y2="128.92"/><line class="cls-3" x1="278.68" y1="127.14" x2="266.14" y2="121.07"/><polyline class="cls-3" points="296.13 130.88 296.89 131.27 297.38 131.53"/><polyline class="cls-3" points="297.05 131.35 292.59 129.08 289.16 127.4 288.26 126.97 285.67 125.74 283.93 124.93"/><polyline class="cls-3" points="295.42 139.69 296.88 140.17 299.74 141.11 300.39 141.32 303.95 142.46 304.15 142.53 307.57 143.61 308.64 143.95 311.24 144.76 312.33 145.1"/><polyline class="cls-3" points="281.47 123.82 279.17 122.8 278.66 122.58 274.83 120.94 271.66 119.64 270.5 119.18 268.16 118.26 266.17 117.5"/><polyline class="cls-3" points="293.62 140.79 293.83 139.78 294.15 138.67 294.57 137.54 295.07 136.42 295.65 135.33 296.29 134.31 296.97 133.37 297.59 132.63"/><polyline class="cls-3" points="261.3 121.83 260.86 122.06 260.4 122.31 259.93 122.57 259.47 122.82 259.07 123.2 258.67 123.58 262.04 124.25 265.49 124.92 269.02 125.6 272.63 126.29 276.8 127.12"/><polyline class="cls-3" points="319.43 138.17 319.43 138.07 315.41 136.67 311.39 135.38 307.39 134.18 303.39 133.06 299.41 132.02 295.46 131.05 291.54 130.15"/><polyline class="cls-3" points="262.75 122.25 266.91 123.54 271.14 124.84 275.44 126.17 278.1 127.01"/><polyline class="cls-3" points="315.39 140.56 314.88 140.35 311.14 138.85 307.4 137.41 303.68 136.03 299.98 134.69 298.43 134.14"/><polyline class="cls-3" points="284.13 122.56 283.59 122.62 282.92 122.85 282.22 123.24 281.5 123.79 280.78 124.48 280.07 125.3 279.39 126.23 278.81 127.17"/><line class="cls-3" x1="278.57" y1="127.6" x2="277.79" y2="127.37"/><polyline class="cls-3" points="280.07 128.06 281.82 128.62 285.39 129.76 289 130.94 292.63 132.15 296.29 133.4 296.81 133.58"/><polyline class="cls-3" points="260.98 122.81 261.32 121.76 261.77 120.66 262.3 119.58 262.91 118.57 263.57 117.63 264.27 116.8 264.99 116.09 265.63 115.59"/><line class="cls-3" x1="277.3" y1="127.25" x2="278.58" y2="127.6"/><polyline class="cls-3" points="312.06 145.65 312.58 144.57 313.18 143.48 313.84 142.46 314.53 141.53 315.24 140.71 315.95 140.02 316.65 139.48 317.23 139.14"/><line class="cls-3" x1="276.8" y1="127.12" x2="277.3" y2="127.24"/><line class="cls-3" x1="277.69" y1="127.34" x2="278.59" y2="127.57"/><polyline class="cls-3" points="278.1 127.01 280.73 127.61 277.04 126.76 273.78 125.95"/><polyline class="cls-3" points="280.73 127.61 284.47 128.49 288.26 129.41"/><line class="cls-3" x1="288.26" y1="129.41" x2="291.29" y2="130.09"/><line class="cls-3" x1="291.54" y1="130.15" x2="291.29" y2="130.09"/><polyline class="cls-3" points="260.47 121.62 260.5 121.61 260.57 121.59"/><line class="cls-3" x1="260.36" y1="121.65" x2="260.46" y2="121.62"/><polyline class="cls-3" points="310.92 154.73 310.77 154.79 292.45 160.23 292.35 160.24 287.66 160.37 282.46 158.79 282.39 158.76 266.1 150.43"/><polyline class="cls-3" points="260.38 121.66 260.41 121.64 260.44 121.63 260.45 121.62"/><line class="cls-3" x1="260.27" y1="121.73" x2="260.4" y2="121.64"/><line class="cls-3" x1="258.75" y1="122.96" x2="258.95" y2="122.79"/><polyline class="cls-3" points="253.76 126.11 253.7 126.17 253.69 126.17"/><polyline class="cls-3" points="259.49 122.34 259.7 122.16 259.92 121.99"/><line class="cls-3" x1="258.26" y1="123.4" x2="257.9" y2="123.73"/><line class="cls-3" x1="258.99" y1="122.75" x2="258.63" y2="123.07"/><line class="cls-3" x1="257.89" y1="123.73" x2="258.17" y2="123.48"/><polyline class="cls-3" points="252.05 124.33 243.77 134.13 243.71 134.21"/><line class="cls-3" x1="312.56" y1="150.58" x2="309.79" y2="152.39"/><polyline class="cls-3" points="258.16 121.09 257.74 121.31 257.24 121.55"/><polyline class="cls-3" points="252.47 130.6 252.35 130.37 252.01 129.44 251.79 128.46"/><polyline class="cls-3" points="251.92 123.43 251.97 123.16 252.29 121.68 252.37 121.42"/><polyline class="cls-3" points="252.61 120.58 252.72 120.18 253.26 118.66 253.89 117.16 254.6 115.69"/><polyline class="cls-3" points="254.63 115.63 255.39 114.26 256.25 112.91 257.16 111.64 257.4 111.34"/><polyline class="cls-3" points="260.81 107.97 261.09 107.76 262.08 107.15 262.89 106.77"/><polyline class="cls-3" points="263.06 106.69 263.98 106.41 264.2 106.38"/><polyline class="cls-3" points="258.64 120.83 258.43 120.95 258.19 121.07 257.77 121.3"/><line class="cls-3" x1="260.89" y1="119.38" x2="260.76" y2="119.51"/><polyline class="cls-3" points="292.1 157.61 288.04 157.72 283.39 156.31"/><line class="cls-3" x1="283.39" y1="156.31" x2="267.27" y2="148.12"/><polyline class="cls-3" points="260.76 144.8 248.23 138.43 248.35 138.48 260.76 144.8"/><polyline class="cls-3" points="267.31 148.13 283.46 156.34 283.39 156.31"/><line class="cls-3" x1="260.64" y1="119.6" x2="260.51" y2="119.7"/><polyline class="cls-3" points="257.62 121.37 257.24 121.55 256.81 121.77"/><line class="cls-3" x1="309.79" y1="152.39" x2="291.99" y2="157.62"/><polyline class="cls-3" points="256.24 122.03 252.32 124.14 252.17 124.22"/><polyline class="cls-3" points="258.99 124.25 258.64 124.06 258.36 123.75 258.21 123.44"/></g><g id="exterior_pockets" data-name="exterior pockets"><path class="cls-2" d="M275,161.47c-6.44-6.25-27-15.06-33.41-18.46"/></g><g id="where::Visible::Curves::headlights"><line class="cls-2" x1="275.57" y1="238.95" x2="276.74" y2="237.54"/><line class="cls-2" x1="276.74" y1="237.54" x2="277.85" y2="235.99"/><path class="cls-2" d="M116.65,193.71a7.91,7.91,0,0,1-3.41,3,3.37,3.37,0,0,1-4.2-.82"/><line class="cls-2" x1="277.85" y1="235.99" x2="278.87" y2="234.33"/><line class="cls-2" x1="278.87" y1="234.33" x2="279.77" y2="232.63"/><path class="cls-2" d="M109,195.93c-1.6-2.42-.94-5,.52-7.23"/><path class="cls-2" d="M150.89,224a4.38,4.38,0,0,1-1.92-4,7.84,7.84,0,0,1,1.44-4.37"/><path class="cls-2" d="M150.41,215.58a8,8,0,0,1,3.35-3,4.48,4.48,0,0,1,4.36,0"/><path class="cls-2" d="M158.5,220.89a8,8,0,0,1-3.3,3,4.57,4.57,0,0,1-4.31.07"/><line class="cls-2" x1="212.98" y1="297.97" x2="274.38" y2="240.18"/><line class="cls-2" x1="211.71" y1="299.07" x2="212.98" y2="297.97"/><line class="cls-2" x1="210.46" y1="299.97" x2="211.71" y2="299.07"/><line class="cls-2" x1="209.25" y1="300.65" x2="210.46" y2="299.97"/><line class="cls-2" x1="208.13" y1="301.08" x2="209.25" y2="300.65"/><line class="cls-2" x1="207.1" y1="301.27" x2="208.13" y2="301.08"/><line class="cls-2" x1="279.77" y1="232.63" x2="295.46" y2="200.26"/><line class="cls-2" x1="295.46" y1="200.26" x2="296.53" y2="197.85"/><line class="cls-2" x1="296.53" y1="197.85" x2="297.4" y2="195.48"/><path class="cls-2" d="M109.56,188.7a8,8,0,0,1,3-2.77c.94-.51,2.85-1.11,3.93-.37"/><line class="cls-2" x1="94" y1="220.8" x2="94.03" y2="220.8"/><line class="cls-2" x1="297.4" y1="195.48" x2="298.05" y2="193.19"/><line class="cls-2" x1="298.05" y1="193.19" x2="298.44" y2="191.06"/><line class="cls-2" x1="206.2" y1="301.19" x2="207.1" y2="301.27"/><line class="cls-2" x1="298.44" y1="191.06" x2="298.59" y2="189.13"/><line class="cls-2" x1="298.59" y1="189.13" x2="298.47" y2="187.46"/><line class="cls-2" x1="298.47" y1="187.46" x2="298.08" y2="186.08"/><line class="cls-2" x1="298.08" y1="186.08" x2="297.45" y2="185.05"/><line class="cls-2" x1="186.93" y1="296.38" x2="206.2" y2="301.19"/><line class="cls-2" x1="185.72" y1="295.83" x2="186.93" y2="296.38"/><line class="cls-2" x1="184.41" y1="287.37" x2="183.98" y2="289.68"/><line class="cls-2" x1="186.28" y1="282.27" x2="185.18" y2="284.87"/><line class="cls-2" x1="187.66" y1="279.63" x2="186.28" y2="282.27"/><line class="cls-2" x1="189.29" y1="277.04" x2="187.66" y2="279.63"/><line class="cls-2" x1="294.17" y1="184.26" x2="292.72" y2="184.81"/><line class="cls-2" x1="297.45" y1="185.05" x2="296.57" y2="184.39"/><line class="cls-2" x1="274.38" y1="240.18" x2="275.57" y2="238.95"/></g><g id="where::Visible::Curves::camera"><line class="cls-2" x1="135.71" y1="212.97" x2="133.98" y2="214.27"/><line class="cls-2" x1="120.23" y1="210.28" x2="120.24" y2="210.27"/><path class="cls-2" d="M130.77,216.92v0"/><line class="cls-2" x1="121.33" y1="209.47" x2="121.34" y2="209.46"/><line class="cls-2" x1="131.47" y1="215.65" x2="130.96" y2="212.82"/><line class="cls-2" x1="119.16" y1="207.39" x2="118.62" y2="204.62"/><line class="cls-2" x1="131.47" y1="215.65" x2="119.16" y2="207.39"/><path class="cls-2" d="M130.77,216.9a2.2,2.2,0,0,0-.2-.56"/><line class="cls-2" x1="125.67" y1="214.39" x2="129.91" y2="217.24"/><line class="cls-2" x1="129.52" y1="215.13" x2="125.27" y2="212.27"/><path class="cls-2" d="M130.69,217.37l0,0"/><line class="cls-2" x1="130.73" y1="217.34" x2="130.65" y2="217.4"/><path class="cls-2" d="M129.91,217.24c.37.26.88.41.87-.18"/><line class="cls-2" x1="147.33" y1="200.38" x2="133.38" y2="210.82"/><line class="cls-2" x1="121.46" y1="211.55" x2="125.67" y2="214.39"/><path class="cls-2" d="M120.23,209.8a3.23,3.23,0,0,0,1.23,1.75"/><path class="cls-2" d="M121.05,209.44c-.48-.33-1-.29-.82.36"/><line class="cls-2" x1="125.27" y1="212.27" x2="121.05" y2="209.44"/><line class="cls-2" x1="119.13" y1="211.08" x2="119.85" y2="214.74"/><line class="cls-2" x1="132.17" y1="219.89" x2="132.82" y2="223.54"/><line class="cls-2" x1="120.34" y1="209.29" x2="120.41" y2="209.23"/><path class="cls-2" d="M120.41,209.23l0,0"/><line class="cls-2" x1="120.21" y1="202.06" x2="134.18" y2="191.91"/></g><g id="where::Visible::Curves::camera_holder" data-name="where::Visible::Curves::camera holder"><line class="cls-2" x1="121.2" y1="209.36" x2="121.19" y2="209.37"/><line class="cls-2" x1="135.44" y1="213.37" x2="131.54" y2="216.31"/><line class="cls-2" x1="133.23" y1="211.12" x2="133.8" y2="214.41"/><line class="cls-2" x1="133.8" y1="214.41" x2="131.51" y2="216.14"/><line class="cls-2" x1="133.98" y1="214.27" x2="133.98" y2="214.27"/><line class="cls-2" x1="133.38" y1="210.82" x2="133.98" y2="214.27"/><line class="cls-2" x1="135.71" y1="212.97" x2="136.35" y2="216.72"/><line class="cls-2" x1="136.05" y1="216.95" x2="136.35" y2="216.72"/><line class="cls-2" x1="118.4" y1="207.33" x2="119.06" y2="206.85"/><line class="cls-2" x1="118.43" y1="207.51" x2="118.4" y2="207.33"/><line class="cls-2" x1="131.51" y1="216.14" x2="131.54" y2="216.31"/><line class="cls-2" x1="133.38" y1="210.82" x2="133.2" y2="210.95"/><line class="cls-2" x1="120.03" y1="202.19" x2="120.21" y2="202.06"/><line class="cls-2" x1="136.02" y1="216.77" x2="134.28" y2="215.61"/><line class="cls-2" x1="132.17" y1="219.89" x2="136.05" y2="216.95"/><line class="cls-2" x1="132.17" y1="219.89" x2="132.14" y2="219.71"/><line class="cls-2" x1="119.13" y1="211.08" x2="119.1" y2="210.91"/><line class="cls-2" x1="135.44" y1="213.37" x2="136.02" y2="216.77"/><line class="cls-2" x1="117.72" y1="203.87" x2="120.03" y2="202.19"/><line class="cls-2" x1="117.75" y1="204.04" x2="117.72" y2="203.87"/><line class="cls-2" x1="130.89" y1="212.68" x2="130.92" y2="212.85"/><line class="cls-2" x1="130.92" y1="212.85" x2="117.75" y2="204.04"/><line class="cls-2" x1="133.23" y1="211.12" x2="130.92" y2="212.85"/><line class="cls-2" x1="130.89" y1="212.68" x2="117.72" y2="203.87"/><line class="cls-2" x1="133.2" y1="210.95" x2="130.89" y2="212.68"/><line class="cls-2" x1="131.54" y1="216.31" x2="118.43" y2="207.51"/><line class="cls-2" x1="131.51" y1="216.14" x2="118.4" y2="207.33"/><line class="cls-2" x1="132.63" y1="211.58" x2="133.12" y2="214.41"/><line class="cls-2" x1="131.47" y1="215.65" x2="133.12" y2="214.41"/><line class="cls-2" x1="120.21" y1="202.06" x2="133.38" y2="210.82"/><line class="cls-2" x1="132.14" y1="219.71" x2="119.1" y2="210.91"/><line class="cls-2" x1="132.14" y1="219.71" x2="136.02" y2="216.77"/><line class="cls-2" x1="120.16" y1="210.12" x2="119.1" y2="210.91"/><line class="cls-2" x1="119.13" y1="211.08" x2="132.17" y2="219.89"/></g><g id="where::Visible::Curves::metal_frame" data-name="where::Visible::Curves::metal frame"><polyline class="cls-2" points="84.45 231.74 84.48 231.72 96.22 223.14"/><polyline class="cls-2" points="87.44 234.05 87.42 234.03 87.41 234.02 87.39 234 84.86 232.17 84.84 232.16 84.83 232.15 84.81 232.15 84.8 232.15 84.79 232.15"/><line class="cls-2" x1="103.93" y1="228.58" x2="92.06" y2="237.4"/><polyline class="cls-2" points="156 294.27 155.16 289.01 155.16 288.99 155.16 288.97 155.17 288.95 155.18 288.92 155.19 288.9 155.21 288.87 155.22 288.85 155.24 288.82 155.26 288.8 155.28 288.78 160.11 284.69"/><polyline class="cls-2" points="154.83 282.78 154.86 282.75 159.95 278.4"/><polyline class="cls-2" points="158.32 285.4 158.31 285.39 158.28 285.37 158.26 285.35 155.32 283.22 155.3 283.21 155.28 283.2 155.27 283.19"/></g><g id="where::Visible::Curves::wheels"><line class="cls-2" x1="212.26" y1="293.85" x2="212.08" y2="293.91"/><line class="cls-2" x1="117.8" y1="184.12" x2="119.75" y2="185.33"/><line class="cls-2" x1="152.04" y1="226.93" x2="149.98" y2="225.74"/><line class="cls-2" x1="159.12" y1="210.87" x2="161.23" y2="212.2"/><line class="cls-2" x1="86.76" y1="223.27" x2="85.96" y2="223.24"/><polyline class="cls-2" points="87.63 223.23 88.48 223.11 89.35 222.92"/><line class="cls-2" x1="85.14" y1="223.13" x2="84.41" y2="222.95"/><polyline class="cls-2" points="87.63 223.23 86.8 223.27 86.76 223.28"/><polyline class="cls-2" points="85.92 223.24 85.19 223.14 85.14 223.13"/><line class="cls-2" x1="85.96" y1="223.24" x2="85.92" y2="223.24"/><polyline class="cls-2" points="90.27 222.64 89.39 222.91 89.35 222.92"/><line class="cls-2" x1="87.93" y1="210.37" x2="87.93" y2="210.37"/><line class="cls-2" x1="87.93" y1="210.38" x2="87.93" y2="210.37"/><polyline class="cls-2" points="188.25 121.68 188.28 121.68 188.36 121.68"/><polyline class="cls-2" points="211.79 293.97 211.63 293.98 211.51 293.98 211.36 293.97 211.23 293.95 211.09 293.91 210.97 293.87"/><polyline class="cls-2" points="215.53 288.95 215.52 288.77 215.5 288.65 215.46 288.49"/><line class="cls-2" x1="87.28" y1="203.37" x2="87.09" y2="203.24"/><path class="cls-2" d="M149.27,214.83a10.3,10.3,0,0,0-1.85,5.71,5.63,5.63,0,0,0,2.56,5.2"/><path class="cls-2" d="M159.12,210.87a5.78,5.78,0,0,0-5.59.06,10.34,10.34,0,0,0-4.26,3.9"/><path class="cls-2" d="M150,225.74a6,6,0,0,0,5.62-.27,10.56,10.56,0,0,0,4.19-4,10.3,10.3,0,0,0,1.72-5.52,5.68,5.68,0,0,0-2.39-5.07"/><polyline class="cls-2" points="277.04 232.78 277.13 232.55 277.21 232.33 277.28 232.11 277.33 231.9 277.37 231.7"/><polyline class="cls-2" points="277.41 231.42 277.42 231.24 277.41 231.07 277.41 230.96 277.38 230.81"/><polyline class="cls-2" points="276.13 234.34 275.98 234.53 275.82 234.72 275.66 234.89 275.5 235.04 275.34 235.18"/><polyline class="cls-2" points="275.11 235.36 274.95 235.46 274.8 235.55"/><line class="cls-2" x1="276.81" y1="229.89" x2="276.91" y2="229.96"/><polyline class="cls-2" points="274.56 235.66 274.41 235.71 274.3 235.74 274.16 235.76"/><polyline class="cls-2" points="273.91 235.78 273.8 235.76 273.68 235.74 273.56 235.71 273.45 235.66 273.34 235.61"/><polyline class="cls-2" points="273.34 235.61 273.29 235.57 272.63 235.18"/><polyline class="cls-2" points="276.08 229.45 276.74 229.84 276.81 229.88"/><polyline class="cls-2" points="277.04 232.78 277.02 232.81 276.93 233.03 276.82 233.26 276.7 233.48 276.57 233.69 276.44 233.91 276.3 234.11 276.15 234.31 276.13 234.34"/><polyline class="cls-2" points="277.32 230.56 277.35 230.67 277.38 230.81"/><polyline class="cls-2" points="277.08 230.13 277.15 230.22 277.22 230.33"/><polyline class="cls-2" points="275.34 235.18 275.19 235.3 275.11 235.36"/><polyline class="cls-2" points="274.8 235.55 274.65 235.62 274.56 235.66"/><polyline class="cls-2" points="188.25 121.68 188.21 121.69 188.13 121.71"/><polyline class="cls-2" points="181.16 121.51 181.07 121.54 181.05 121.56 180.96 121.61"/><polyline class="cls-2" points="181.16 121.51 181.19 121.5 181.28 121.49"/><polyline class="cls-2" points="180.87 121.68 180.88 121.67 180.96 121.61"/><polyline class="cls-2" points="277.41 231.42 277.39 231.51 277.37 231.7"/><polyline class="cls-2" points="107.55 231.32 107.06 231.18 107 231.16"/><polyline class="cls-2" points="106.55 230.96 106.13 230.71 106.07 230.68"/><polyline class="cls-2" points="106.07 230.68 105.97 230.6 103.52 228.88"/><line class="cls-2" x1="107" y1="231.16" x2="106.55" y2="230.96"/><polyline class="cls-2" points="249.07 231.51 249.09 231.29 249.09 231.09 249.09 230.98 249.07 230.79 249.04 230.62 249.01 230.5 248.96 230.34 248.91 230.23 248.84 230.09 248.77 229.99 248.69 229.87 248.6 229.77 248.49 229.68 248.39 229.6"/><polyline class="cls-2" points="244.56 235.83 244.68 235.89 244.81 235.94 244.94 235.98 245.08 236.01 245.21 236.02 245.36 236.02 245.48 236.01 245.65 235.99 245.76 235.96 245.93 235.91 246.11 235.84 246.21 235.79 246.38 235.7 246.57 235.58"/><polygon class="cls-2" points="253.47 254.32 253.36 254.26 253.25 254.21 253.36 254.27 253.47 254.32"/><polyline class="cls-2" points="254.22 254.41 254.08 254.42 253.96 254.43 253.83 254.41 253.71 254.4"/><path class="cls-2" d="M108.53,188a10.15,10.15,0,0,0-1.85,5.32,5.14,5.14,0,0,0,2.22,4.93"/><path class="cls-2" d="M117.8,184.12a5.38,5.38,0,0,0-5.27.18,10.23,10.23,0,0,0-4,3.72"/><path class="cls-2" d="M108.9,198.27a5.5,5.5,0,0,0,5.29-.33,10.64,10.64,0,0,0,4-3.79,10.22,10.22,0,0,0,1.75-5.19,5.21,5.21,0,0,0-2.09-4.84"/><polyline class="cls-2" points="195.16 285.02 194.98 285.04 194.85 285.04 194.68 285.03 194.55 285.01 194.39 284.97 194.26 284.93 194.12 284.86"/><line class="cls-2" x1="195.48" y1="284.96" x2="195.68" y2="284.89"/><polyline class="cls-2" points="195.98 284.75 196.19 284.64 196.4 284.51"/><polyline class="cls-2" points="196.88 284.14 197.09 283.95 197.29 283.75 197.49 283.53 197.69 283.3 197.87 283.06 198.05 282.81 198.22 282.56 198.38 282.3 198.52 282.03 198.65 281.77 198.77 281.51 198.87 281.25"/><polyline class="cls-2" points="199.04 280.66 199.09 280.42 199.12 280.19"/><line class="cls-2" x1="199.13" y1="279.86" x2="199.12" y2="279.65"/><polyline class="cls-2" points="199.07 279.34 199.02 279.16 198.98 279.04 198.91 278.88 198.84 278.77 198.75 278.64 198.66 278.53 198.54 278.42 198.44 278.34"/><line class="cls-2" x1="195.32" y1="284.99" x2="195.32" y2="284.99"/><polyline class="cls-2" points="195.98 284.75 195.78 284.84 195.68 284.89"/><polyline class="cls-2" points="196.88 284.14 196.68 284.31 196.47 284.45 196.4 284.51"/><polyline class="cls-2" points="199.04 280.66 199.01 280.75 198.95 281 198.87 281.25"/><polyline class="cls-2" points="199.13 279.86 199.13 279.97 199.12 280.19"/><polyline class="cls-2" points="197.7 277.83 198.42 278.32 198.44 278.34"/><line class="cls-2" x1="194.12" y1="284.86" x2="194" y2="284.79"/><polyline class="cls-2" points="194 284.79 193.87 284.7 193.16 284.2"/><polyline class="cls-2" points="287.92 176.13 287.92 176.05 287.92 176.01 287.9 175.94 287.89 175.89 287.86 175.83 287.84 175.79 287.81 175.75 287.77 175.71 287.74 175.67 287.7 175.65 285.37 174.39"/><line class="cls-2" x1="285.23" y1="174.34" x2="285.27" y2="174.35"/><polyline class="cls-2" points="284.68 174.56 284.7 174.54 284.78 174.47"/><polyline class="cls-2" points="285.11 174.33 285.07 174.34 285 174.35 284.96 174.37"/><line class="cls-2" x1="284.85" y1="174.42" x2="284.78" y2="174.47"/><polyline class="cls-2" points="280.84 179.05 280.8 179.01 280.76 178.99"/><polyline class="cls-2" points="278.36 177.68 278.32 177.66 278.27 177.64 278.2 177.63 278.16 177.63 278.11 177.64 278.04 177.65 278 177.66 277.93 177.69 277.89 177.71 277.82 177.76"/><polyline class="cls-2" points="277.72 177.84 277.74 177.83 277.82 177.76"/><polyline class="cls-2" points="285.27 174.35 285.32 174.37 285.37 174.39"/><polyline class="cls-2" points="285.11 174.33 285.16 174.33 285.23 174.34"/><polyline class="cls-2" points="284.85 174.42 284.88 174.4 284.96 174.37"/><polyline class="cls-2" points="83.77 211.8 82.9 212.42 82.02 212.97 81.17 213.44"/><line class="cls-2" x1="92.97" y1="221.43" x2="94.88" y2="222.77"/><polyline class="cls-2" points="257.51 249.17 257.46 249.04 257.41 248.93 257.35 248.81 257.28 248.71 257.2 248.61 257.11 248.52"/><polyline class="cls-2" points="256.89 251.97 257.02 251.74 257.13 251.5 257.24 251.27 257.32 251.04 257.4 250.81 257.46 250.59 257.51 250.38"/><polyline class="cls-2" points="91.48 213.22 91.32 213.1 90.74 212.69"/><polyline class="cls-2" points="256.89 251.97 256.88 251.99 256.75 252.21 256.62 252.43 256.47 252.64 256.46 252.66"/><polyline class="cls-2" points="256.46 252.66 256.31 252.87 256.14 253.08 255.98 253.27 255.81 253.45 255.64 253.62 255.47 253.77 255.31 253.9"/><polyline class="cls-2" points="257.56 250.09 257.58 249.9 257.58 249.72 257.58 249.61 257.56 249.44"/><polyline class="cls-2" points="255.07 254.07 254.9 254.17 254.74 254.24 254.64 254.29 254.49 254.34"/><polyline class="cls-2" points="253.71 254.4 253.59 254.36 253.47 254.32"/><polyline class="cls-2" points="256.23 247.94 256.9 248.36 256.91 248.37"/><polyline class="cls-2" points="257.56 250.09 257.55 250.18 257.51 250.38"/><polyline class="cls-2" points="255.31 253.9 255.14 254.01 255.07 254.07"/><polyline class="cls-2" points="254.49 254.34 254.34 254.38 254.22 254.41"/><polyline class="cls-2" points="256.91 248.37 257.01 248.44 257.11 248.52"/><polyline class="cls-2" points="244.56 235.83 244.49 235.79 243.78 235.35"/><polyline class="cls-2" points="247 235.24 247.18 235.07 247.36 234.89 247.54 234.69 247.72 234.48 247.88 234.25 248.05 234.02 248.2 233.78 248.35 233.53 248.48 233.28 248.6 233.03 248.71 232.78 248.81 232.53 248.89 232.29 248.96 232.05"/><polyline class="cls-2" points="249.07 231.51 249.05 231.6 249.01 231.82 248.96 232.05"/><polyline class="cls-2" points="92.05 213.46 91.86 213.4 91.76 213.36"/><polyline class="cls-2" points="247.61 229.13 248.32 229.56 248.39 229.6"/><polyline class="cls-2" points="278.36 177.68 280.7 178.95 280.76 178.99"/><polyline class="cls-2" points="199.07 279.34 199.09 279.46 199.12 279.65"/><polyline class="cls-2" points="195.48 284.96 195.29 285 195.16 285.02"/><polyline class="cls-2" points="237.62 269.1 237.56 269.32 237.49 269.55 237.4 269.78 237.3 270.02 237.18 270.26 237.06 270.5 236.92 270.74 236.77 270.98 236.62 271.21 236.46 271.43 236.29 271.65 236.11 271.85 235.94 272.04 235.76 272.21 235.58 272.37 235.4 272.52"/><polyline class="cls-2" points="237.68 268.8 237.71 268.59 237.72 268.4"/><polyline class="cls-2" points="235.15 272.69 234.97 272.8 234.8 272.89"/><polyline class="cls-2" points="237.38 267.21 237.29 267.12 237.2 267.03 237.1 266.95"/><line class="cls-2" x1="233.46" y1="273.01" x2="233.58" y2="273.05"/><polygon class="cls-2" points="274.16 235.76 274.03 235.77 273.91 235.78 274.05 235.77 274.16 235.76"/><polyline class="cls-2" points="276.91 229.96 276.99 230.04 277.08 230.13 277 230.04"/><polyline class="cls-2" points="277.22 230.33 277.27 230.43 277.32 230.56"/><line class="cls-2" x1="233.46" y1="273.01" x2="233.23" y2="272.9"/><polyline class="cls-2" points="233.46 273.01 233.34 272.96 233.23 272.9"/><polyline class="cls-2" points="233.23 272.9 233.15 272.85 232.47 272.4"/><polyline class="cls-2" points="236.37 266.47 237.04 266.91 237.1 266.95"/><polyline class="cls-2" points="237.68 268.8 237.66 268.89 237.62 269.1"/><polyline class="cls-2" points="235.4 272.52 235.23 272.64 235.15 272.69"/><polyline class="cls-2" points="234.8 272.89 234.64 272.96 234.54 273"/><polyline class="cls-2" points="91.76 213.36 91.58 213.27 91.48 213.22"/><line class="cls-2" x1="91.61" y1="210.83" x2="91.61" y2="210.83"/><line class="cls-2" x1="87.28" y1="203.37" x2="87.61" y2="203.6"/><line class="cls-2" x1="274.1" y1="235.77" x2="274.1" y2="235.77"/><line class="cls-2" x1="91.48" y1="190.75" x2="91.47" y2="190.74"/><polyline class="cls-2" points="92.05 213.46 92.25 213.5 92.26 213.5"/><polyline class="cls-2" points="91.19 214.2 91.15 214.17 91.12 214.13 91.1 214.08 91.09 214.02 91.09 213.95 91.1 213.88 91.12 213.81 91.15 213.74 91.19 213.67 91.24 213.6 91.3 213.54 91.36 213.49 91.42 213.45 91.49 213.41 91.55 213.39 91.61 213.38 91.67 213.38 91.72 213.4 91.76 213.43"/><line class="cls-2" x1="102.02" y1="227.24" x2="102.02" y2="227.22"/><line class="cls-2" x1="107.9" y1="231.38" x2="107.55" y2="231.32"/><polyline class="cls-2" points="234.54 273 234.38 273.05 234.26 273.07 234.1 273.1"/><polyline class="cls-2" points="215.36 288.23 215.4 288.35 215.46 288.49"/><polyline class="cls-2" points="237.72 268.11 237.69 267.94 237.67 267.83 237.63 267.68"/><line class="cls-2" x1="94.88" y1="222.77" x2="94.95" y2="222.82"/><polyline class="cls-2" points="95.83 223.25 95.89 223.27 96 223.3"/><polyline class="cls-2" points="215.53 288.95 215.53 289.07 215.53 289.26"/><polyline class="cls-2" points="215.47 289.68 215.45 289.77 215.4 289.99"/><polyline class="cls-2" points="212.08 293.91 211.91 293.94 211.79 293.97"/><polyline class="cls-2" points="213.17 293.31 212.99 293.45 212.91 293.5"/><polyline class="cls-2" points="237.72 268.11 237.72 268.22 237.72 268.4"/><polyline class="cls-2" points="214.22 287.21 214.83 287.63 214.91 287.68"/><polyline class="cls-2" points="86.31 203.18 86.33 203.18 86.6 203.14 86.86 203.16 87.09 203.24"/><polyline class="cls-2" points="84.36 206.53 84.33 206.49 84.23 206.25 84.21 206.05"/><polyline class="cls-2" points="89.54 210.34 89.51 210.32 89.48 210.28 89.46 210.22 89.45 210.16 89.45 210.1 89.46 210.03 89.48 209.96 89.52 209.88 89.56 209.81 89.61 209.75 89.66 209.69 89.72 209.63 89.79 209.59 89.85 209.56 89.92 209.54 89.98 209.53 90.03 209.53 90.08 209.54 90.13 209.57"/><polyline class="cls-2" points="92.46 214.31 92.4 214.34 91.98 214.47 91.57 214.55 91.17 214.58 90.79 214.56 90.43 214.49 90.1 214.37 89.81 214.2 89.23 213.79 88.97 213.58 88.74 213.32 88.55 213.01 88.4 212.67 88.3 212.3 88.24 211.89 88.23 211.45 88.23 211.4 88.26 211 88.34 210.53 88.46 210.04 88.62 209.56 88.83 209.07 89.08 208.58 89.36 208.11 89.67 207.65 90.02 207.22 90.39 206.8 90.59 206.61"/><polygon class="cls-2" points="233.72 273.08 233.84 273.1 233.71 273.07 233.58 273.06 233.72 273.08"/><polygon class="cls-2" points="237.46 267.32 237.38 267.21 237.44 267.32 237.52 267.43 237.46 267.32"/><polygon class="cls-2" points="233.98 273.1 234.1 273.1 233.96 273.1 233.84 273.1 233.98 273.1"/><polygon class="cls-2" points="237.58 267.56 237.52 267.43 237.57 267.55 237.63 267.68 237.58 267.56"/><polyline class="cls-2" points="247 235.24 246.82 235.39 246.64 235.52 246.57 235.58 246.75 235.44 246.79 235.41"/><polygon class="cls-2" points="257.54 249.33 257.51 249.17 257.53 249.29 257.56 249.44 257.54 249.33"/><line class="cls-2" x1="95.37" y1="223.05" x2="94.95" y2="222.82"/><line class="cls-2" x1="95.84" y1="223.25" x2="95.37" y2="223.05"/><line class="cls-2" x1="214.91" y1="287.68" x2="215.04" y2="287.79"/><polyline class="cls-2" points="181.92 121.75 181.54 121.55 181.51 121.53 181.43 121.5 181.4 121.5 181.31 121.49 181.28 121.49"/><polyline class="cls-2" points="215.22 287.99 215.29 288.1 215.36 288.23"/><line class="cls-2" x1="90.49" y1="191.42" x2="90.49" y2="191.41"/><polyline class="cls-2" points="84.96 210.84 84.63 211.13 83.78 211.79 83.77 211.8"/><line class="cls-2" x1="87.91" y1="193.77" x2="87.92" y2="193.77"/><polyline class="cls-2" points="180.68 121.92 180.73 121.84 180.8 121.76 180.87 121.68"/><polyline class="cls-2" points="210.97 293.87 210.85 293.8 210.74 293.74"/><polyline class="cls-2" points="215.47 289.68 215.51 289.46 215.53 289.26"/><line class="cls-2" x1="285.87" y1="184.36" x2="285.87" y2="184.36"/><polyline class="cls-2" points="90.27 222.64 91.16 222.31 92.05 221.91 92.94 221.44 93.83 220.91"/><polyline class="cls-2" points="84.45 219.8 85.24 219.73 86.32 219.51 87.43 219.17 88.55 218.71 88.66 218.65 88.77 218.56 88.88 218.47 88.97 218.36 89.06 218.24 89.13 218.12 89.19 217.99 89.22 217.86 89.24 217.74 89.25 217.63 88.97 214.44"/><polyline class="cls-2" points="83.92 221.38 83.85 221.32 83.79 221.25 83.76 221.15 83.74 221.04 83.74 220.92 83.77 220.8 83.81 220.67 83.87 220.53 83.94 220.41 84.03 220.29 88.84 214.58 88.94 214.47 89.04 214.38 89.15 214.31 89.26 214.25 89.37 214.21 89.47 214.19 89.58 214.18 89.67 214.2 89.9 214.25"/><polyline class="cls-2" points="94.02 220.78 93.85 220.9 93.83 220.91"/><polyline class="cls-2" points="80.92 215.96 84.67 211.52 84.76 211.41 84.83 211.28 84.89 211.16 84.93 211.03 84.96 210.91 84.96 210.79 84.95 210.68 84.92 210.58 84.85 210.35"/><polyline class="cls-2" points="82.01 210.48 82.02 210.47 82.14 210.41 82.26 210.38 82.38 210.37 87.67 210.34 87.75 210.34 87.85 210.35 87.94 210.38"/><polyline class="cls-2" points="88.01 210.43 87.94 210.38 87.93 210.38"/><polyline class="cls-2" points="83.9 206.53 84.8 206.53 84.91 206.52 85.02 206.49 85.13 206.44 85.25 206.37 85.36 206.28 85.46 206.18 85.55 206.07 85.63 205.95 86.15 205.17 86.74 204.46 87.4 203.82 87.5 203.72 87.59 203.61 87.67 203.5 87.74 203.37 87.79 203.25 87.83 203.12 87.84 203 87.84 202.89 87.74 201.65"/><line class="cls-2" x1="110.89" y1="199.42" x2="108.9" y2="198.27"/><polyline class="cls-2" points="212.91 293.5 212.72 293.62 212.54 293.73"/><polyline class="cls-2" points="215.4 289.99 215.33 290.22 215.24 290.46 215.14 290.7 215.03 290.94 214.9 291.19 214.76 291.44 214.61 291.68 214.45 291.92 214.28 292.15 214.11 292.38 213.93 292.59 213.74 292.79 213.55 292.98 213.36 293.15 213.17 293.31"/><line class="cls-2" x1="82.66" y1="208.88" x2="82.7" y2="208.9"/><polygon class="cls-2" points="212.44 293.77 212.54 293.73 212.36 293.81 212.25 293.85 212.44 293.77"/><polygon class="cls-2" points="215.22 287.99 215.14 287.89 215.04 287.79 215.13 287.89 215.22 287.99"/></g><g id="where::Visible::Curves::tires"><polyline class="cls-2" points="179.58 249.66 179.39 247.75 181.22 246.21 184.2 252.37 186.29 253.77 186.47 255.68"/><polyline class="cls-2" points="200.56 260.96 200.43 259.06 191.81 257.49 189.7 256.06 186.94 258.43 187.11 260.34"/><polyline class="cls-2" points="189.13 241.64 188.97 239.72 190.76 238.23 193.79 244.23 195.88 245.61 196.02 247.52"/><polyline class="cls-2" points="210.01 252.67 209.92 250.76 201.39 249.23 199.28 247.84 196.58 250.15 196.72 252.06"/><polyline class="cls-2" points="198.46 233.81 198.33 231.89 200.07 230.43 203.15 236.29 205.24 237.63 205.34 239.55"/><polyline class="cls-2" points="219.24 244.58 219.18 242.66 210.73 241.17 208.62 239.82 206 242.07 206.1 243.98"/><polyline class="cls-2" points="207.57 226.16 207.47 224.25 209.17 222.82 212.29 228.54 214.37 229.85 214.45 231.77"/><polyline class="cls-2" points="228.25 236.68 228.21 234.76 219.84 233.31 217.75 231.98 215.18 234.19 215.26 236.1"/><polyline class="cls-2" points="216.46 218.7 216.39 216.78 218.05 215.39 221.22 220.98 223.29 222.26 223.34 224.17"/><polyline class="cls-2" points="237.04 228.97 237.03 227.05 228.75 225.63 226.66 224.34 224.15 226.49 224.2 228.4"/><polyline class="cls-2" points="225.15 211.4 225.11 209.48 226.73 208.12 229.94 213.59 232 214.84 232.02 216.75"/><polyline class="cls-2" points="245.63 221.44 245.65 219.52 237.44 218.13 235.35 216.87 232.91 218.97 232.93 220.88"/><polyline class="cls-2" points="233.64 204.28 233.63 202.35 235.22 201.03 238.46 206.36 240.51 207.58 240.51 209.5"/><polyline class="cls-2" points="254.02 214.08 254.07 212.16 245.93 210.8 243.85 209.57 241.47 211.62 241.46 213.54"/><polyline class="cls-2" points="241.94 197.31 241.96 195.39 243.51 194.09 246.78 199.31 248.83 200.5 248.8 202.42"/><polyline class="cls-2" points="262.21 206.89 262.29 204.97 254.23 203.65 252.16 202.44 249.83 204.44 249.79 206.36"/><polyline class="cls-2" points="250.06 190.49 250.1 188.57 251.62 187.3 254.92 192.41 256.96 193.57 256.9 195.49"/><polyline class="cls-2" points="270.23 199.87 270.33 197.95 262.34 196.65 260.28 195.47 258 197.43 257.94 199.35"/><polyline class="cls-2" points="258 183.83 258.06 181.91 259.54 180.67 262.88 185.66 264.91 186.8 264.83 188.72"/><polyline class="cls-2" points="278.06 193 278.18 191.08 270.27 189.81 268.22 188.65 265.99 190.57 265.9 192.49"/><polyline class="cls-2" points="268.38 182.83 268.47 180.91 269.2 180.29"/><polyline class="cls-2" points="265.76 177.31 265.85 175.39 267.3 174.18 270.66 179.06 272.69 180.18 272.58 182.09"/><polyline class="cls-2" points="285.72 186.28 285.87 184.36 278.03 183.12 275.98 181.99 273.8 183.86 273.69 185.78"/><polyline class="cls-2" points="273.4 171.42 273.82 169.25 275.19 168.42 278.65 172.65 280.66 173.74 280.23 175.88"/><polyline class="cls-2" points="293.12 180.8 293.65 178.38 285.98 176.61 283.94 175.51 281.88 176.79 281.4 179.15"/><polyline class="cls-2" points="177.7 270.92 176.58 269.78 179.06 266.53 181.18 267.99 189.56 268.78 190.66 269.96"/><polyline class="cls-2" points="172.22 267.11 171.08 265.96 171.91 264.88 168.65 257.71 170.29 255.58 171.46 256.8"/><line class="cls-2" x1="288.34" y1="176.18" x2="289.68" y2="173.7"/><line class="cls-2" x1="286.35" y1="174.79" x2="288.47" y2="175.93"/><polyline class="cls-2" points="168.98 281.16 166.82 281.98 164.75 280.5 165.09 279.39 160.44 272 161.12 269.75 163.37 268.96"/><polyline class="cls-2" points="173.28 295.37 178.19 297.62 180.21 295.43"/><polyline class="cls-2" points="189.29 277.05 191.11 274.59 193.07 272.34 195.11 270.37 289.48 187.06 291.14 185.75 292.72 184.81"/><polyline class="cls-2" points="170.37 289.78 168.2 292.11 166.17 290.64 165.88 290.01 159.43 284.07 158.84 282.79 161.1 280.4"/><polyline class="cls-2" points="160.36 281.18 159.94 279.09 159.95 276.55 160.4 273.7 160.75 272.49"/><polyline class="cls-2" points="294.66 179.27 298.27 181.22 299.33 182.03 300.09 183.29 300.54 184.96 300.68 186.99 300.5 189.33 300.01 191.9 299.23 194.66 298.18 197.53 296.88 200.43 295.86 202.53 290.82 212.91 285.73 223.42 281.25 232.63 280.08 234.85 278.75 237.01 277.31 239.03 275.79 240.87 274.24 242.47 273.09 243.57 266.18 250.09 258.7 257.15 251.06 264.36 242.62 272.34 233.97 280.5 225.79 288.22 213.09 300.22 211.44 301.66 209.8 302.84 208.23 303.73 206.75 304.31 205.4 304.56 204.22 304.48 202.48 304.06 196.12 302.56 190.04 301.12 184.82 299.88 183.31 299.21 179.35 296.36"/><polyline class="cls-2" points="172.62 284.76 179.52 285.52 181.49 284.74"/><polyline class="cls-2" points="276.12 176.27 276.58 173.91 277.27 173.49"/><polyline class="cls-2" points="79.72 187.46 79.24 185.54 80.17 184.91"/><polyline class="cls-2" points="78.83 181.85 78.35 179.93 80.2 178.7 82.04 183.66 83.72 184.79 84.19 186.71"/><polyline class="cls-2" points="88.51 175.37 88.07 173.46 89.88 172.25 91.77 177.1 93.46 178.21 93.89 180.13"/><polyline class="cls-2" points="97.99 169.03 97.58 167.12 99.35 165.94 101.3 170.69 102.99 171.77 103.39 173.69"/><polyline class="cls-2" points="107.27 162.83 106.89 160.92 108.62 159.76 110.63 164.41 112.31 165.47 112.68 167.38"/><polyline class="cls-2" points="116.35 156.75 116 154.84 117.7 153.71 119.75 158.26 121.44 159.3 121.77 161.21"/><polyline class="cls-2" points="125.24 150.81 124.92 148.9 126.58 147.79 128.69 152.24 130.37 153.26 130.68 155.17"/><polyline class="cls-2" points="133.95 144.98 133.66 143.08 135.29 141.99 137.44 146.35 139.12 147.35 139.4 149.26"/><polyline class="cls-2" points="142.48 139.27 142.22 137.37 143.81 136.31 146.01 140.58 147.69 141.56 147.94 143.46"/><polyline class="cls-2" points="150.84 133.68 150.6 131.78 152.17 130.74 154.4 134.93 156.08 135.89 156.31 137.79"/><polyline class="cls-2" points="159.04 128.2 158.82 126.31 160.36 125.28 162.63 129.39 164.3 130.33 164.51 132.22"/><polyline class="cls-2" points="172.25 133.33 168.71 132.8 167.02 131.85 164.71 133.42 164.91 135.32"/><polyline class="cls-2" points="167.07 122.83 166.88 120.94 168.38 119.93 170.69 123.96 172.36 124.88 172.54 126.77"/><polyline class="cls-2" points="180 127.78 176.76 127.3 175.07 126.37 172.81 127.91 172.99 129.81"/><polyline class="cls-2" points="176.64 121.97 176.82 119.69 177.56 119.37"/><polyline class="cls-2" points="175.06 118.05 175.22 115.95 176.69 115.32 179.04 118.73 180.7 119.63 180.53 121.7"/><polyline class="cls-2" points="74.42 194.61 73.14 193.41 71.45 192.25"/><polyline class="cls-2" points="187.65 122.58 185.09 122 183.41 121.1 181.19 122.07 181 124.35"/><polyline class="cls-2" points="74.95 199.43 73.51 198.12 75.87 195.3 77.57 196.47 84.66 196.89 86.09 198.26"/><polyline class="cls-2" points="70.54 196.37 69.1 195.05 69.89 194.11 67.62 188.14 69.18 186.29 70.66 187.68"/><line class="cls-2" x1="187.56" y1="121.5" x2="188.58" y2="122.05"/><polyline class="cls-2" points="70.24 211.73 75.64 211.86 77.78 211.43"/><polyline class="cls-2" points="72.33 212.31 70 212.78 68.32 211.58 69.04 208.41 71.14 208"/><polyline class="cls-2" points="67.95 209.19 65.62 209.65 63.96 208.47 64.19 207.41 60.32 201 60.79 198.88 63.2 198.45"/><polyline class="cls-2" points="72.5 222.44 75.91 223.74 77.89 221.9"/><polyline class="cls-2" points="70.72 218.03 68.58 219.99 66.94 218.8 66.53 218.12 60.8 212.82 59.96 211.45 62.18 209.44"/><polyline class="cls-2" points="126.93 148.53 127.89 147.89 133.79 143.95"/><polyline class="cls-2" points="88.61 228.7 83.34 226.84 81.5 225.89 77.05 222.69"/><polyline class="cls-2" points="112.36 234.53 111.03 235.01 109.4 235.33 107.87 235.33 106.48 235.02 104.39 234.28 98.87 232.33"/><polyline class="cls-2" points="243.65 194.32 244.16 193.89 250.09 188.93"/><polyline class="cls-2" points="287.71 172.62 285.71 171.55 281.55 169.3 280.69 168.85"/><polyline class="cls-2" points="299.75 179.07 292.95 175.44 290.94 174.36 289.68 173.7"/><polyline class="cls-2" points="267.45 174.39 269.01 173.09 271.05 171.57 273.01 170.5 273.61 170.31"/><line class="cls-2" x1="283.1" y1="173.36" x2="284.43" y2="170.88"/><polyline class="cls-2" points="260.57 189.47 260.64 187.56 261.39 186.92"/><polyline class="cls-2" points="252.59 196.26 252.63 194.34 253.4 193.7"/><polyline class="cls-2" points="87.39 229.59 86.45 228.62 84.82 227.45 84.87 227.38"/><polyline class="cls-2" points="244.42 203.21 244.44 201.29 245.22 200.63"/><polyline class="cls-2" points="84.41 222.95 82.55 221.78 81.64 220.28 81.06 218.49 80.85 216.44 81 214.21 81.52 211.84 82.38 209.43 83.58 207.03 85.06 204.73 86.78 202.6 88.7 200.69 89.09 200.39"/><polyline class="cls-2" points="174.42 285.04 172.27 285.88 170.18 284.38 171.23 281.02 173.18 280.28"/><polyline class="cls-2" points="170.55 255.84 170.9 255.46 173.43 253.12 174.11 252.54 179.42 248.1"/><polyline class="cls-2" points="138.63 156.55 134.8 155.95 133.1 154.92 130.59 156.63 130.9 158.54"/><polyline class="cls-2" points="147.33 150.57 143.54 149.98 141.85 148.97 139.38 150.64 139.67 152.55"/><polyline class="cls-2" points="155.85 144.71 152.1 144.13 150.41 143.15 148 144.79 148.25 146.69"/><line class="cls-2" x1="189.03" y1="121.79" x2="189.89" y2="120.13"/><polyline class="cls-2" points="164.17 138.97 160.49 138.41 158.8 137.44 156.44 139.05 156.67 140.95"/><line class="cls-2" x1="191.13" y1="120.78" x2="189.89" y2="120.13"/><polyline class="cls-2" points="236.07 210.31 236.06 208.39 236.86 207.72"/><polyline class="cls-2" points="227.52 217.58 227.49 215.66 228.31 214.97"/><polyline class="cls-2" points="218.77 225.02 218.71 223.1 219.55 222.39"/><polyline class="cls-2" points="209.82 232.64 209.72 230.72 210.58 230"/><polyline class="cls-2" points="200.65 240.44 200.52 238.52 201.4 237.78"/><polyline class="cls-2" points="191.25 248.43 191.09 246.52 192 245.75"/><polyline class="cls-2" points="181.63 256.61 181.43 254.71 182.36 253.93"/><polyline class="cls-2" points="211.39 301.69 211.39 301.74 209.77 303.26 209.62 302.94"/><polyline class="cls-2" points="251.76 187.53 252.21 187.15 258.05 182.26"/><polyline class="cls-2" points="235.36 201.26 235.93 200.78 241.95 195.74"/><polyline class="cls-2" points="218.19 215.63 218.9 215.04 225.12 209.84"/><line class="cls-2" x1="209.31" y1="223.07" x2="216.4" y2="217.13"/><polyline class="cls-2" points="200.21 230.69 201.07 229.97 207.49 224.6"/><polyline class="cls-2" points="181.35 246.49 182.37 245.63 189 240.08"/><line class="cls-2" x1="172.06" y1="291.12" x2="170.31" y2="289.85"/><line class="cls-2" x1="180.51" y1="117.7" x2="182.12" y2="118.56"/><line class="cls-2" x1="70.04" y1="219.88" x2="69.23" y2="219.39"/><polyline class="cls-2" points="202.99 304.18 201.92 306.15 200.71 306.13 197.7 302.93"/><line class="cls-2" x1="279.49" y1="171.09" x2="280.69" y2="168.85"/><line class="cls-2" x1="71.41" y1="218.62" x2="70.66" y2="218.08"/><polyline class="cls-2" points="61.71 209.87 61.16 208.28 60.83 205.76 60.96 203.01 61.1 202.29"/><polyline class="cls-2" points="90.19 173.05 91.48 172.2 97.77 168"/><polyline class="cls-2" points="135.65 142.71 136.53 142.12 142.34 138.24"/><polyline class="cls-2" points="89.48 180.86 89.03 178.94 89.95 178.33"/><polyline class="cls-2" points="99.03 174.41 98.62 172.49 99.52 171.89"/><polyline class="cls-2" points="108.39 168.09 108 166.17 108.88 165.58"/><polyline class="cls-2" points="117.54 161.9 117.19 159.99 118.04 159.41"/><polyline class="cls-2" points="126.5 155.85 126.17 153.94 127.01 153.37"/><polyline class="cls-2" points="135.27 149.92 134.98 148.01 135.8 147.46"/><polyline class="cls-2" points="294.17 184.26 295.47 184.13 296.57 184.39"/><polyline class="cls-2" points="184.41 287.37 184.41 287.37 185.18 284.87 185.18 284.87"/><polyline class="cls-2" points="185.72 295.83 184.78 294.85 184.17 293.47 183.9 291.73 183.98 289.68 183.98 289.68"/><polyline class="cls-2" points="143.86 144.11 143.6 142.21 144.4 141.66"/><polyline class="cls-2" points="152.28 138.42 152.04 136.52 152.83 135.99"/><polyline class="cls-2" points="160.53 132.84 160.32 130.95 161.09 130.43"/><polyline class="cls-2" points="168.62 127.38 168.43 125.49 169.18 124.98"/><polyline class="cls-2" points="276.34 169.82 276.45 169.82 277.85 170.2 281.35 172.09"/><line class="cls-2" x1="184.37" y1="120.07" x2="185.55" y2="117.8"/><line class="cls-2" x1="187.75" y1="121.6" x2="188.81" y2="119.54"/><polyline class="cls-2" points="113.26 235.16 113.25 235.17 113.24 235.15"/><line class="cls-2" x1="170.87" y1="292.4" x2="168.98" y2="291.27"/><polyline class="cls-2" points="191.15 301.38 189.96 303.35 188.79 303.08 185.59 300.06"/><polyline class="cls-2" points="197.15 302.8 195.98 304.73 194.86 304.48 191.66 301.5"/><line class="cls-2" x1="286.5" y1="174.86" x2="287.71" y2="172.62"/><line class="cls-2" x1="87.85" y1="218.99" x2="85.78" y2="218.21"/><line class="cls-2" x1="182.12" y1="118.56" x2="183.18" y2="116.51"/><polyline class="cls-2" points="69.9 186.96 70.3 186.57 72.83 184.64 73.52 184.18 78.57 180.81"/><polyline class="cls-2" points="110.92 175.2 107.43 174.63 105.73 173.53 103.05 175.36 103.45 177.28"/><polyline class="cls-2" points="120.48 168.87 116.75 168.27 115.05 167.2 112.43 168.98 112.8 170.9"/><polyline class="cls-2" points="129.71 162.65 125.87 162.04 124.17 160.99 121.6 162.74 121.94 164.65"/><line class="cls-2" x1="90.5" y1="199.26" x2="90.5" y2="199.26"/><polyline class="cls-2" points="99.68 166.72 100.87 165.93 107.06 161.79"/><line class="cls-2" x1="108.96" y1="160.53" x2="116.16" y2="155.72"/><polyline class="cls-2" points="152.54 131.43 153.29 130.93 158.92 127.17"/><polyline class="cls-2" points="160.73 125.96 161.42 125.51 166.97 121.8"/><polyline class="cls-2" points="177.89 117.06 178.83 117.12 180.51 117.7"/><polyline class="cls-2" points="188.81 119.53 187.16 118.65 184.26 117.07 183.18 116.51"/><line class="cls-2" x1="295.56" y1="179.77" x2="295.56" y2="179.76"/><polyline class="cls-2" points="300.65 187.43 301.1 186.96 301.09 185.47 300.54 184.96"/><polyline class="cls-2" points="259.69 180.89 260.08 180.56 265.83 175.75"/><polyline class="cls-2" points="226.88 208.36 227.51 207.83 233.63 202.71"/><polyline class="cls-2" points="190.89 238.49 191.83 237.71 198.36 232.24"/><path class="cls-2" d="M188,152.55c.46.23.37.86.3,1.24"/><path class="cls-2" d="M188,153.58a2.07,2.07,0,0,0,0-.35.46.46,0,0,0-.11-.33"/><path class="cls-2" d="M187.79,155.25c0,.1-.08.19-.13.29"/><path class="cls-2" d="M187.83,152.49l.18.06"/><line class="cls-2" x1="295.56" y1="179.77" x2="294.66" y2="179.27"/><polyline class="cls-2" points="92.98 188.59 88.17 187.78 86.46 186.64 83.66 188.54 84.13 190.45"/><path class="cls-2" d="M187.85,152.87a.2.2,0,0,0-.11,0"/><polyline class="cls-2" points="101.62 181.75 97.9 181.13 96.2 180.01 93.46 181.88 93.9 183.79"/><polyline class="cls-2" points="176.66 265.22 175.66 264.18 173.56 262.73"/></g><g id="where::Visible::Curves::white_detail" data-name="where::Visible::Curves::white detail"><line class="cls-2" x1="87.04" y1="194.14" x2="87.04" y2="194.04"/><line class="cls-2" x1="87.04" y1="194.04" x2="87.06" y2="193.94"/><line class="cls-2" x1="87.06" y1="194.23" x2="87.04" y2="194.14"/><line class="cls-2" x1="88" y1="197.55" x2="87.92" y2="197.48"/><line class="cls-2" x1="87.1" y1="194.32" x2="87.06" y2="194.23"/><line class="cls-2" x1="87.85" y1="197.4" x2="87.81" y2="197.32"/><line class="cls-2" x1="87.06" y1="193.94" x2="87.11" y2="193.84"/><line class="cls-2" x1="87.11" y1="193.84" x2="87.17" y2="193.75"/><line class="cls-2" x1="168.8" y1="249.67" x2="169.18" y2="252.73"/><polyline class="cls-2" points="168.09 249.5 155.64 241.02 135.63 227.4 116.43 214.33 87.64 194.74 87.25 194.47"/><line class="cls-2" x1="168.8" y1="249.67" x2="168.64" y2="249.67"/><line class="cls-2" x1="274.85" y1="164.8" x2="274.82" y2="164.89"/><line class="cls-2" x1="274.86" y1="164.65" x2="274.86" y2="164.72"/><line class="cls-2" x1="168.64" y1="249.67" x2="168.49" y2="249.65"/><line class="cls-2" x1="169.18" y1="252.73" x2="169.02" y2="252.73"/><line class="cls-2" x1="169.5" y1="249.4" x2="169.38" y2="249.49"/><line class="cls-2" x1="169.87" y1="252.46" x2="169.76" y2="252.55"/><line class="cls-2" x1="169.76" y1="252.55" x2="169.63" y2="252.62"/><line class="cls-2" x1="169.02" y1="252.73" x2="168.87" y2="252.71"/><line class="cls-2" x1="169.25" y1="249.56" x2="169.11" y2="249.61"/><line class="cls-2" x1="169.63" y1="252.62" x2="169.48" y2="252.67"/><line class="cls-2" x1="168.49" y1="249.65" x2="168.35" y2="249.62"/><line class="cls-2" x1="274.98" y1="161.82" x2="274.93" y2="161.9"/><line class="cls-2" x1="275" y1="161.47" x2="275.03" y2="161.56"/><line class="cls-2" x1="168.35" y1="249.62" x2="168.21" y2="249.57"/><line class="cls-2" x1="168.73" y1="252.68" x2="168.59" y2="252.63"/><line class="cls-2" x1="168.96" y1="249.65" x2="168.8" y2="249.67"/><line class="cls-2" x1="169.33" y1="252.71" x2="169.18" y2="252.73"/><line class="cls-2" x1="168.21" y1="249.57" x2="168.09" y2="249.5"/><line class="cls-2" x1="168.59" y1="252.63" x2="168.47" y2="252.56"/><line class="cls-2" x1="87.92" y1="197.48" x2="87.85" y2="197.4"/><line class="cls-2" x1="275.03" y1="161.64" x2="275.02" y2="161.73"/><line class="cls-2" x1="275.03" y1="161.56" x2="275.03" y2="161.64"/><line class="cls-2" x1="274.76" y1="164.97" x2="274.69" y2="165.04"/><polyline class="cls-2" points="168.47 252.56 156.08 244.09 136.17 230.48 117.06 217.41 88.39 197.82 88 197.55"/><line class="cls-2" x1="169.38" y1="249.49" x2="169.25" y2="249.56"/><line class="cls-2" x1="87.26" y1="193.66" x2="87.36" y2="193.58"/><line class="cls-2" x1="87.17" y1="193.75" x2="87.26" y2="193.66"/><polyline class="cls-2" points="274.86 161.97 274.51 162.25 238.31 192.3 213 213.3 185.88 235.81 169.5 249.4"/><polyline class="cls-2" points="274.69 165.04 274.35 165.33 238.32 195.38 213.13 216.38 186.16 238.88 169.87 252.46"/><line class="cls-2" x1="87.25" y1="194.47" x2="87.17" y2="194.4"/><line class="cls-2" x1="87.06" y1="194.23" x2="87.81" y2="197.32"/><line class="cls-2" x1="275.02" y1="161.73" x2="274.98" y2="161.82"/><line class="cls-2" x1="274.93" y1="161.9" x2="274.86" y2="161.97"/><line class="cls-2" x1="168.87" y1="252.71" x2="168.73" y2="252.68"/><line class="cls-2" x1="169.11" y1="249.61" x2="168.96" y2="249.65"/><line class="cls-2" x1="169.48" y1="252.67" x2="169.33" y2="252.71"/><line class="cls-2" x1="87.17" y1="194.4" x2="87.1" y2="194.32"/></g><g id="where::Visible::Curves::Layer_01" data-name="where::Visible::Curves::Layer 01"><path class="cls-2" d="M130.67,217.39h0"/><path class="cls-2" d="M130,217.46h0"/><path class="cls-2" d="M134,215.92c.43-.32.12-1.13,0-1.47"/><line class="cls-2" x1="121.04" y1="209.43" x2="129.51" y2="215.13"/><line class="cls-2" x1="129.89" y1="217.27" x2="121.45" y2="211.58"/><path class="cls-2" d="M120.4,210.35a2,2,0,0,1-.2-.55"/><path class="cls-2" d="M120.31,209.28c.21-.16.57,0,.73.15"/><path class="cls-2" d="M130.77,216.92c.12.67-.39.68-.88.35"/><path class="cls-2" d="M121,209.25c-.9-.61-1.23,0-.82.91a3.53,3.53,0,0,0,1.31,1.6"/><line class="cls-2" x1="121.49" y1="211.76" x2="129.93" y2="217.45"/><line class="cls-2" x1="121" y1="209.25" x2="129.47" y2="214.94"/><path class="cls-2" d="M134.34,214.2a1.63,1.63,0,0,1-.16,1.57"/><path class="cls-2" d="M130.76,217.69c.28-.1.26-.45.22-.67a2.61,2.61,0,0,0-.27-.72,4,4,0,0,0-1-1.19"/><path class="cls-2" d="M129.47,214.94a3.51,3.51,0,0,1,1.33,1.62c.41.95,0,1.51-.87.89"/><path class="cls-2" d="M130,217.46c.25.17.45.36.81.23"/><path class="cls-2" d="M132,216c.13.32.39,1-.07,1.24"/><path class="cls-2" d="M120.37,209.24l0,0"/><path class="cls-2" d="M120.08,209.1c-.23.32,0,1,.18,1.21"/><path class="cls-2" d="M121.49,211.77h0"/><path class="cls-2" d="M120.25,210.32c-.13-.26-.4-.89-.17-1.21"/><path class="cls-2" d="M121.49,211.77a3.64,3.64,0,0,1-.88-.87"/><path class="cls-2" d="M121.51,211.77h0"/><path class="cls-2" d="M134.12,215.85c.35-.34.07-1.1-.08-1.42"/><line class="cls-2" x1="129.93" y1="217.46" x2="121.49" y2="211.77"/><line class="cls-2" x1="129.92" y1="217.25" x2="129.89" y2="217.27"/><path class="cls-2" d="M120.77,209.08a.55.55,0,0,0-.58-.07"/><path class="cls-2" d="M129.48,214.93h0"/><path class="cls-2" d="M121,209.23h0"/><path class="cls-2" d="M120.2,209.8c0-.2-.1-.37.11-.52"/><path class="cls-2" d="M130.57,216.36a2,2,0,0,1,.2.56"/><path class="cls-2" d="M129.93,217.46h0"/><path class="cls-2" d="M129.51,215.13a3.08,3.08,0,0,1,1.06,1.23"/><line class="cls-2" x1="121.51" y1="211.77" x2="129.95" y2="217.46"/><path class="cls-2" d="M120.08,209.1l.25-.32"/><path class="cls-2" d="M134,215.92a12.51,12.51,0,0,1-2.13,1.3"/><path class="cls-2" d="M129.93,217.45h0"/><path class="cls-2" d="M130.76,217.69c-.36.13-.56-.05-.83-.23"/><line class="cls-2" x1="134" y1="214.45" x2="134" y2="214.45"/><path class="cls-2" d="M121,209.23v0"/><line class="cls-2" x1="121.45" y1="211.58" x2="121.47" y2="211.56"/><line class="cls-2" x1="121.04" y1="209.43" x2="121.04" y2="209.43"/><path class="cls-2" d="M121.45,211.58a3.05,3.05,0,0,1-1-1.23"/><path class="cls-2" d="M131.9,217.22c-.36.17-.73.32-1.1.46"/><path class="cls-2" d="M132.07,216.25h0"/><path class="cls-2" d="M120.08,209.1a.31.31,0,0,1,.11-.09"/></g><g id="where::Visible::Curves::exterior_pockets" data-name="where::Visible::Curves::exterior pockets"><path class="cls-2" d="M202.82,134.77a32.52,32.52,0,0,1,10.62-3.66"/><path class="cls-2" d="M136.49,158c7.66-5.25,30.22-20.75,37.79-26.13,3.12-2.22,6.2-4.51,9.35-6.69,2.79-1.94,6.62-4.5,10.11-5.27,4.14-.92,7.58.95,10.84,2.8s6.59,3.9,9.94,5.77"/></g><g id="where::Visible::Curves::body"><line class="cls-2" x1="168.86" y1="252.71" x2="169.36" y2="256.79"/><line class="cls-2" x1="274.21" y1="169.01" x2="274.41" y2="165.27"/><polyline class="cls-2" points="88.48 197.88 94.03 220.81 94.08 220.97 94.14 221.13 94.23 221.31 94.34 221.49 94.46 221.67 94.59 221.84 94.73 222.01 94.88 222.16 95.03 222.29 95.17 222.4 106.28 230.24 131.68 248.16 157.09 266.08 158.53 267.1 161.79 269.4"/><line class="cls-2" x1="171.08" y1="265.96" x2="171.08" y2="265.96"/></g><g id="where::Visible::Curves::metal"><line class="cls-2" x1="175.25" y1="158.31" x2="175.25" y2="156.31"/><path class="cls-2" d="M186.4,160.81a3.26,3.26,0,0,0,1.33-2.43"/><line class="cls-2" x1="187.85" y1="150.59" x2="187.83" y2="152.18"/><path class="cls-2" d="M176.62,148a3.27,3.27,0,0,0-1.39,2.5"/><line class="cls-2" x1="187.76" y1="156.38" x2="187.73" y2="158.38"/><path class="cls-2" d="M213.37,132.06c-.08,1.68,1.33,2.95,2.61,3.65a11.31,11.31,0,0,0,9.16.42c1.33-.58,2.86-1.7,3-3.38"/><line class="cls-2" x1="213.37" y1="132.06" x2="213.38" y2="131.72"/><path class="cls-2" d="M213.42,131.39c0,.11,0,.22,0,.33"/><line class="cls-2" x1="228.13" y1="132.41" x2="228.1" y2="132.75"/><path class="cls-2" d="M228.12,132c0,.12,0,.25,0,.37"/><path class="cls-2" d="M187.76,156.38a2.48,2.48,0,0,0-.11-.81"/><path class="cls-2" d="M186.43,158.81a3.24,3.24,0,0,0,1.33-2.43"/><path class="cls-2" d="M185.49,155.24a3.79,3.79,0,0,0,2.34-3.06"/><path class="cls-2" d="M175.23,150.52a3.8,3.8,0,0,0,2.34,3.1,9.31,9.31,0,0,0,7.9,0,3.78,3.78,0,0,0,2.38-3.07"/><path class="cls-2" d="M175.25,156.31c0,2.45,2.92,3.61,4.81,3.9a8.51,8.51,0,0,0,6.37-1.4"/><path class="cls-2" d="M175.25,158.31c0,2.44,2.91,3.61,4.8,3.9a8.46,8.46,0,0,0,6.35-1.4"/><path class="cls-2" d="M187.85,150.59c0-2.47-2.92-3.63-4.81-3.93a8.71,8.71,0,0,0-6.42,1.36"/><line class="cls-2" x1="175.24" y1="152.11" x2="175.23" y2="150.52"/></g><g id="where::Visible::Curves::gps"><path class="cls-2" d="M228.12,132a4.4,4.4,0,0,1-.41,1.51"/><path class="cls-2" d="M224.75,127.44c1.74.81,3.52,2.43,3.38,4.62"/><path class="cls-2" d="M213.41,131.39c.11-2.49,2.55-4,4.6-4.52a10.23,10.23,0,0,1,6.74.57"/><path class="cls-2" d="M227.71,133.55c-2.21,4.24-12.28,3.84-14-.63"/><path class="cls-2" d="M213.67,132.92a3.79,3.79,0,0,1-.26-1.2"/></g><g id="where::Visible::Curves::exterior"><path class="cls-2" d="M87.17,193.75c3.76-3.42,7.55-6.8,11.59-9.9,2.06-1.59,10.27-7.38,12.43-8.83,4.22-2.83,8.48-5.6,12.69-8.43s8.42-5.7,12.61-8.57"/><path class="cls-2" d="M191.41,158.5c.05-2.32-1.81-4-3.6-5"/><path class="cls-2" d="M189.32,162.32a5.19,5.19,0,0,0,2.09-3.82"/><path class="cls-2" d="M147.33,200.38a88.54,88.54,0,0,0-7.78,11.24c-2.29,3.95-4.67,7.84-6.73,11.92"/><line class="cls-2" x1="123.8" y1="207.94" x2="123.8" y2="207.94"/><path class="cls-2" d="M175.26,153.42c-1.82.94-3.7,2.64-3.68,5"/><path class="cls-2" d="M183.9,146.84c6.14-4.29,12.19-8.64,18.92-12.07"/><path class="cls-2" d="M171.59,159.31c1.73,3.49,4.4,4.87,8.09,5.32,3.13.39,7-.19,9.64-2.31"/><line class="cls-2" x1="171.61" y1="162.36" x2="171.58" y2="158.39"/><path class="cls-2" d="M134.18,191.91q6.56,4.26,13.15,8.47"/><path class="cls-2" d="M171.61,162.36c1.68,3.39,4.58,4.74,8.1,5.14,3.1.36,7-.23,9.53-2.33"/><line class="cls-2" x1="228.1" y1="132.75" x2="227.91" y2="135.73"/><path class="cls-2" d="M171.24,160.28l0,.06"/><path class="cls-2" d="M180.17,176.27c15.59,9.61,26.33,18.7,33.51,36.47"/><path class="cls-2" d="M227.91,135.73q6.78,3.61,13.57,7.21"/><path class="cls-2" d="M136.49,158c3.74-2.56,8.58-1.09,12.08.31a86.39,86.39,0,0,1,11.21,5.74"/><line class="cls-2" x1="191.41" y1="158.5" x2="191.35" y2="161.47"/><path class="cls-2" d="M189.24,165.17a5.25,5.25,0,0,0,2.11-3.78"/><path class="cls-2" d="M159.78,164.07c5.14-3.74,10.32-7.42,15.48-11.11"/></g><g id="where::Visible::Curves::_6006" data-name="where::Visible::Curves::???6006"><path class="cls-2" d="M175.24,152.11c0,2.23,2.53,3.41,4.26,3.79a9.31,9.31,0,0,0,6-.66"/><line class="cls-2" x1="187.83" y1="152.18" x2="187.76" y2="156.38"/><line class="cls-2" x1="175.25" y1="156.31" x2="175.24" y2="152.11"/></g><g id="where::Visible::SceneSilhouetteCurves::metal_frame" data-name="where::Visible::SceneSilhouetteCurves::metal frame"><polyline class="cls-2" points="84.42 231.86 84.42 231.83 84.42 231.78 84.45 231.74"/><line class="cls-2" x1="163.26" y1="287.59" x2="159.54" y2="290.83"/><polygon class="cls-2" points="159.08 291.61 156.13 294.17 156.04 294.24 155.96 294.29 155.88 294.33 155.8 294.36 155.73 294.37 155.67 294.36 155.61 294.34 81.79 240.03 81.74 239.98 81.7 239.93 81.67 239.86 80.34 234.95 80.33 234.87 80.33 234.78 80.34 234.69 80.37 234.59 80.41 234.5 80.46 234.4 80.53 234.31 80.6 234.22 80.68 234.14 80.76 234.07 83.76 231.88 83.85 231.83 83.94 231.78 84.02 231.75 84.11 231.74 84.19 231.74 84.25 231.76 84.32 231.79 158.73 285.7 158.77 285.74 158.8 285.79 158.82 285.86 159.54 290.69 159.54 290.76 159.54 290.85 159.51 290.94 159.48 291.04 159.43 291.14 159.38 291.25 159.31 291.35 159.24 291.44 159.16 291.53 159.08 291.61"/><polyline class="cls-2" points="154.81 282.86 154.81 282.83 154.83 282.78"/></g><g id="where::Visible::SceneSilhouetteCurves::tires"><polyline class="cls-2" points="161.73 269.54 162.58 267.46 164.24 264.25 166.23 261.11 168.47 258.15 168.72 257.87"/><polyline class="cls-2" points="77.33 222.89 76.87 223.66 76.24 223.44"/><polyline class="cls-2" points="105.57 234.7 104.55 236.65 103.15 236.4 100.82 233.61 99.22 232.47 99.23 232.46"/><polyline class="cls-2" points="73.3 222.75 72.91 223.11 71.25 221.91 70.03 219.88 71.97 218.1"/><polyline class="cls-2" points="144.18 137.01 145 136.47 150.71 132.65"/><polyline class="cls-2" points="118.04 154.47 119.07 153.77 125.07 149.77"/><polyline class="cls-2" points="80.51 179.52 81.88 178.61 88.27 174.34"/><polyline class="cls-2" points="84.04 227.08 82.85 229.04 81.42 228.54 79 225.99 77.36 224.81 78.16 223.49"/><polyline class="cls-2" points="288.58 175.74 288.41 175.66 288.26 175.81"/><polyline class="cls-2" points="173.88 295.64 173.56 295.99 171.5 294.5 170.67 292.62 172.64 290.5"/><polyline class="cls-2" points="168.77 120.6 170.66 119.34 172.8 118.12 174.92 117.33 175.12 117.3"/><polyline class="cls-2" points="184.91 299.9 183.69 301.91 182.48 301.63 178.66 297.97 178.13 297.59"/><line class="cls-2" x1="298.5" y1="181.39" x2="299.75" y2="179.07"/><polyline class="cls-2" points="98.26 232.79 97.45 234.12 96.78 233.89"/><polyline class="cls-2" points="62.05 198.66 62.57 197.16 64.01 194.24 65.82 191.45 67.91 188.9"/><polyline class="cls-2" points="274.93 241.76 274.69 242.09 274.66 242.04"/></g><g id="where::Visible::SceneSilhouetteCurves::metal"><path class="cls-2" d="M228.12,132c0,.12,0,.25,0,.37"/><line class="cls-2" x1="228.13" y1="132.41" x2="228.1" y2="132.75"/></g><g id="where::Visible::SceneSilhouetteCurves::gps"><path class="cls-2" d="M224.75,127.44c1.74.81,3.52,2.43,3.38,4.62"/></g><g id="where::Visible::SceneSilhouetteCurves::white_detail" data-name="where::Visible::SceneSilhouetteCurves::white detail"><line class="cls-2" x1="274.82" y1="164.89" x2="274.76" y2="164.97"/><line class="cls-2" x1="275.03" y1="161.64" x2="274.86" y2="164.72"/><line class="cls-2" x1="274.86" y1="164.72" x2="274.85" y2="164.8"/></g><g id="where::Visible::SceneSilhouetteCurves::exterior"><path class="cls-2" d="M241.6,143c-5.8-3.07-12.26-.6-17.24,1.94a117.93,117.93,0,0,0-15.23,9.71c-5,3.63-24,17.83-29,21.61"/><line class="cls-2" x1="228.1" y1="132.75" x2="227.91" y2="135.73"/><path class="cls-2" d="M243.69,144.38A13.67,13.67,0,0,0,241.6,143"/></g><g id="where::Visible::SceneSilhouetteCurves::wheels"><polyline class="cls-2" points="188.84 121.9 188.51 121.72 188.47 121.71 188.4 121.69 188.36 121.68"/><polyline class="cls-2" points="188.03 121.75 188.04 121.75 188.13 121.71"/></g><g id="where::Visible::SceneSilhouetteCurves::headlights"><line class="cls-2" x1="85.79" y1="218.2" x2="87.87" y2="218.99"/></g></svg>